M48
; DRILL file KiCad 10.0.6 date 2026-09-06T02:12:06
; FORMAT={-:-/ absolute / metric / decimal}
; #@! TF.CreationDate,2026-09-06T02:12:06+08:00
; #@! TF.GenerationSoftware,Kicad,Pcbnew,10.0.6
; #@! TF.FileFunction,Plated,1,2,PTH
FMAT,2
METRIC
; #@! TA.AperFunction,Plated,PTH,ViaDrill
T1C0.300
; #@! TA.AperFunction,Plated,PTH,ComponentDrill
T2C0.550
; #@! TA.AperFunction,Plated,PTH,ComponentDrill
T3C0.850
; #@! TA.AperFunction,Plated,PTH,ComponentDrill
T4C1.000
%
G90
G05
T1
X113.0Y-26.0
X115.0Y-38.0
X115.48Y-42.48
X115.5Y-31.5
X118.5Y-36.0
X120.0Y-30.0
X121.5Y-28.2
X122.85Y-40.65
X123.461Y-31.589
X124.0Y-23.0
X127.5Y-23.0
X127.539Y-37.411
X132.0Y-30.5
X133.02Y-38.02
X133.28Y-35.78
X133.5Y-29.5
X133.5Y-32.625
X134.5Y-24.5
X134.5Y-31.0
X134.52Y-36.52
X136.0Y-41.0
X136.45Y-38.05
X136.5Y-45.0
X140.001Y-32.5
T4
X116.19Y-19.5
X116.88Y-49.0
X118.73Y-19.5
X119.42Y-49.0
X121.27Y-19.5
X121.96Y-49.0
X123.81Y-19.5
X124.5Y-49.0
X128.19Y-19.5
X130.73Y-19.5
X133.27Y-19.5
X135.81Y-19.5
T2
G00X142.37Y-29.63
M15
G01X143.02Y-29.63
M16
G05
G00X142.37Y-37.38
M15
G01X143.02Y-37.38
M16
G05
T3
G00X138.62Y-29.78
M15
G01X139.17Y-29.78
M16
G05
G00X138.62Y-37.23
M15
G01X139.17Y-37.23
M16
G05
M30
