%TF.GenerationSoftware,KiCad,Pcbnew,10.0.6*%
%TF.CreationDate,2026-09-06T02:12:52+08:00*%
%TF.ProjectId,pcb_design,7063625f-6465-4736-9967-6e2e6b696361,rev?*%
%TF.SameCoordinates,Original*%
%TF.FileFunction,Copper,L1,Top*%
%TF.FilePolarity,Positive*%
%FSLAX46Y46*%
G04 Gerber Fmt 4.6, Leading zero omitted, Abs format (unit mm)*
G04 Created by KiCad (PCBNEW 10.0.6) date 2026-09-06 02:12:52*
%MOMM*%
%LPD*%
G01*
G04 APERTURE LIST*
G04 Aperture macros list*
%AMRoundRect*
0 Rectangle with rounded corners*
0 $1 Rounding radius*
0 $2 $3 $4 $5 $6 $7 $8 $9 X,Y pos of 4 corners*
0 Add a 4 corners polygon primitive as box body*
4,1,4,$2,$3,$4,$5,$6,$7,$8,$9,$2,$3,0*
0 Add four circle primitives for the rounded corners*
1,1,$1+$1,$2,$3*
1,1,$1+$1,$4,$5*
1,1,$1+$1,$6,$7*
1,1,$1+$1,$8,$9*
0 Add four rect primitives between the rounded corners*
20,1,$1+$1,$2,$3,$4,$5,0*
20,1,$1+$1,$4,$5,$6,$7,0*
20,1,$1+$1,$6,$7,$8,$9,0*
20,1,$1+$1,$8,$9,$2,$3,0*%
G04 Aperture macros list end*
%TA.AperFunction,SMDPad,CuDef*%
%ADD10RoundRect,0.140000X0.140000X0.170000X-0.140000X0.170000X-0.140000X-0.170000X0.140000X-0.170000X0*%
%TD*%
%TA.AperFunction,SMDPad,CuDef*%
%ADD11RoundRect,0.140000X0.170000X-0.140000X0.170000X0.140000X-0.170000X0.140000X-0.170000X-0.140000X0*%
%TD*%
%TA.AperFunction,SMDPad,CuDef*%
%ADD12RoundRect,0.250000X-0.350000X0.450000X-0.350000X-0.450000X0.350000X-0.450000X0.350000X0.450000X0*%
%TD*%
%TA.AperFunction,SMDPad,CuDef*%
%ADD13R,0.800000X1.000000*%
%TD*%
%TA.AperFunction,SMDPad,CuDef*%
%ADD14R,1.500000X0.700000*%
%TD*%
%TA.AperFunction,ComponentPad*%
%ADD15C,1.700000*%
%TD*%
%TA.AperFunction,ComponentPad*%
%ADD16R,1.700000X1.700000*%
%TD*%
%TA.AperFunction,SMDPad,CuDef*%
%ADD17RoundRect,0.135000X-0.135000X-0.185000X0.135000X-0.185000X0.135000X0.185000X-0.135000X0.185000X0*%
%TD*%
%TA.AperFunction,SMDPad,CuDef*%
%ADD18RoundRect,0.375000X-0.375000X0.625000X-0.375000X-0.625000X0.375000X-0.625000X0.375000X0.625000X0*%
%TD*%
%TA.AperFunction,SMDPad,CuDef*%
%ADD19RoundRect,0.500000X-1.400000X0.500000X-1.400000X-0.500000X1.400000X-0.500000X1.400000X0.500000X0*%
%TD*%
%TA.AperFunction,SMDPad,CuDef*%
%ADD20RoundRect,0.075000X-0.662500X-0.075000X0.662500X-0.075000X0.662500X0.075000X-0.662500X0.075000X0*%
%TD*%
%TA.AperFunction,SMDPad,CuDef*%
%ADD21RoundRect,0.075000X-0.075000X-0.662500X0.075000X-0.662500X0.075000X0.662500X-0.075000X0.662500X0*%
%TD*%
%TA.AperFunction,SMDPad,CuDef*%
%ADD22RoundRect,0.135000X0.135000X0.185000X-0.135000X0.185000X-0.135000X-0.185000X0.135000X-0.185000X0*%
%TD*%
%TA.AperFunction,SMDPad,CuDef*%
%ADD23RoundRect,0.135000X-0.185000X0.135000X-0.185000X-0.135000X0.185000X-0.135000X0.185000X0.135000X0*%
%TD*%
%TA.AperFunction,SMDPad,CuDef*%
%ADD24RoundRect,0.112500X0.537500X-0.112500X0.537500X0.112500X-0.537500X0.112500X-0.537500X-0.112500X0*%
%TD*%
%TA.AperFunction,ComponentPad*%
%ADD25O,1.800000X1.150000*%
%TD*%
%TA.AperFunction,ComponentPad*%
%ADD26O,2.000000X1.450000*%
%TD*%
%TA.AperFunction,SMDPad,CuDef*%
%ADD27RoundRect,0.218750X-0.256250X0.218750X-0.256250X-0.218750X0.256250X-0.218750X0.256250X0.218750X0*%
%TD*%
%TA.AperFunction,SMDPad,CuDef*%
%ADD28RoundRect,0.218750X0.218750X0.256250X-0.218750X0.256250X-0.218750X-0.256250X0.218750X-0.256250X0*%
%TD*%
%TA.AperFunction,SMDPad,CuDef*%
%ADD29RoundRect,0.250000X-0.250000X-0.475000X0.250000X-0.475000X0.250000X0.475000X-0.250000X0.475000X0*%
%TD*%
%TA.AperFunction,SMDPad,CuDef*%
%ADD30RoundRect,0.140000X-0.140000X-0.170000X0.140000X-0.170000X0.140000X0.170000X-0.140000X0.170000X0*%
%TD*%
%TA.AperFunction,SMDPad,CuDef*%
%ADD31RoundRect,0.225000X0.225000X0.250000X-0.225000X0.250000X-0.225000X-0.250000X0.225000X-0.250000X0*%
%TD*%
%TA.AperFunction,SMDPad,CuDef*%
%ADD32RoundRect,0.140000X-0.170000X0.140000X-0.170000X-0.140000X0.170000X-0.140000X0.170000X0.140000X0*%
%TD*%
%TA.AperFunction,ViaPad*%
%ADD33C,0.700000*%
%TD*%
%TA.AperFunction,Conductor*%
%ADD34C,0.200000*%
%TD*%
%TA.AperFunction,Conductor*%
%ADD35C,0.300000*%
%TD*%
G04 APERTURE END LIST*
D10*
%TO.P,C1,1*%
%TO.N,+3.3V*%
X128980000Y-40500000D03*
%TO.P,C1,2*%
%TO.N,GND*%
X128020000Y-40500000D03*
%TD*%
D11*
%TO.P,C11,1*%
%TO.N,/HSE_OUT*%
X118000000Y-37980000D03*
%TO.P,C11,2*%
%TO.N,GND*%
X118000000Y-37020000D03*
%TD*%
%TO.P,C10,2*%
%TO.N,GND*%
X118000000Y-33020000D03*
%TO.P,C10,1*%
%TO.N,/HSE_IN*%
X118000000Y-33980000D03*
%TD*%
D12*
%TO.P,Y1,1,1_1*%
%TO.N,/HSE_IN*%
X114650000Y-33400000D03*
%TO.P,Y1,2,G_2*%
%TO.N,GND*%
X114650000Y-35600000D03*
%TO.P,Y1,3,3_3*%
%TO.N,/HSE_OUT*%
X116350000Y-35600000D03*
%TO.P,Y1,4,G_4*%
%TO.N,GND*%
X116350000Y-33400000D03*
%TD*%
D13*
%TO.P,SW1,*%
%TO.N,*%
X110780000Y-24350000D03*
X108570000Y-24350000D03*
X110780000Y-31650000D03*
X108570000Y-31650000D03*
D14*
%TO.P,SW1,1,A_1*%
%TO.N,GND*%
X111430000Y-25750000D03*
%TO.P,SW1,2,B_2*%
%TO.N,/SW_BOOT0*%
X111430000Y-28750000D03*
%TO.P,SW1,3,C_3*%
%TO.N,+3.3V*%
X111430000Y-30250000D03*
%TD*%
D15*
%TO.P,J4,4,Pin_4_4*%
%TO.N,GND*%
X124500000Y-49000000D03*
%TO.P,J4,3,Pin_3_3*%
%TO.N,/I2C2_SDA*%
X121960000Y-49000000D03*
%TO.P,J4,2,Pin_2_2*%
%TO.N,/I2C2_SCL*%
X119420000Y-49000000D03*
D16*
%TO.P,J4,1,Pin_1_1*%
%TO.N,+3.3V*%
X116880000Y-49000000D03*
%TD*%
D15*
%TO.P,J2,4,Pin_4_4*%
%TO.N,GND*%
X128190000Y-19500000D03*
%TO.P,J2,3,Pin_3_3*%
%TO.N,/SWCLK*%
X130730000Y-19500000D03*
%TO.P,J2,2,Pin_2_2*%
%TO.N,/SWDIO*%
X133270000Y-19500000D03*
D16*
%TO.P,J2,1,Pin_1_1*%
%TO.N,+3.3V*%
X135810000Y-19500000D03*
%TD*%
D17*
%TO.P,R5,1*%
%TO.N,/SW_BOOT0*%
X117490000Y-30000000D03*
%TO.P,R5,2*%
%TO.N,/BOOT0*%
X118510000Y-30000000D03*
%TD*%
D18*
%TO.P,U2,1,GND_1*%
%TO.N,GND*%
X134300000Y-42350000D03*
%TO.P,U2,2,VO_2*%
%TO.N,+3.3V*%
X132000000Y-42350000D03*
D19*
X132000000Y-48650000D03*
D18*
%TO.P,U2,3,VI_3*%
%TO.N,VBUS*%
X129700000Y-42350000D03*
%TD*%
D20*
%TO.P,U1,1,VBAT_1*%
%TO.N,+3.3V*%
X121337500Y-31750000D03*
%TO.P,U1,2,PC13_2*%
%TO.N,unconnected-(U1-PC13-Pad2)*%
X121337500Y-32250000D03*
%TO.P,U1,3,PC14_3*%
%TO.N,unconnected-(U1-PC14-Pad3)*%
X121337500Y-32750000D03*
%TO.P,U1,4,PC15_4*%
%TO.N,unconnected-(U1-PC15-Pad4)*%
X121337500Y-33250000D03*
%TO.P,U1,5,PD0_5*%
%TO.N,/HSE_IN*%
X121337500Y-33750000D03*
%TO.P,U1,6,PD1_6*%
%TO.N,/HSE_OUT*%
X121337500Y-34250000D03*
%TO.P,U1,7,NRST_7*%
%TO.N,/NRST*%
X121337500Y-34750000D03*
%TO.P,U1,8,VSSA_8*%
%TO.N,GND*%
X121337500Y-35250000D03*
%TO.P,U1,9,VDDA_9*%
%TO.N,+3.3VA*%
X121337500Y-35750000D03*
%TO.P,U1,10,PA0_10*%
%TO.N,unconnected-(U1-PA0-Pad10)*%
X121337500Y-36250000D03*
%TO.P,U1,11,PA1_11*%
%TO.N,unconnected-(U1-PA1-Pad11)*%
X121337500Y-36750000D03*
%TO.P,U1,12,PA2_12*%
%TO.N,unconnected-(U1-PA2-Pad12)*%
X121337500Y-37250000D03*
D21*
%TO.P,U1,13,PA3_13*%
%TO.N,unconnected-(U1-PA3-Pad13)*%
X122750000Y-38662500D03*
%TO.P,U1,14,PA4_14*%
%TO.N,unconnected-(U1-PA4-Pad14)*%
X123250000Y-38662500D03*
%TO.P,U1,15,PA5_15*%
%TO.N,unconnected-(U1-PA5-Pad15)*%
X123750000Y-38662500D03*
%TO.P,U1,16,PA6_16*%
%TO.N,unconnected-(U1-PA6-Pad16)*%
X124250000Y-38662500D03*
%TO.P,U1,17,PA7_17*%
%TO.N,unconnected-(U1-PA7-Pad17)*%
X124750000Y-38662500D03*
%TO.P,U1,18,PB0_18*%
%TO.N,unconnected-(U1-PB0-Pad18)*%
X125250000Y-38662500D03*
%TO.P,U1,19,PB1_19*%
%TO.N,unconnected-(U1-PB1-Pad19)*%
X125750000Y-38662500D03*
%TO.P,U1,20,PB2_20*%
%TO.N,unconnected-(U1-PB2-Pad20)*%
X126250000Y-38662500D03*
%TO.P,U1,21,PB10_21*%
%TO.N,/I2C2_SCL*%
X126750000Y-38662500D03*
%TO.P,U1,22,PB11_22*%
%TO.N,/I2C2_SDA*%
X127250000Y-38662500D03*
%TO.P,U1,23,VSS_23*%
%TO.N,GND*%
X127750000Y-38662500D03*
%TO.P,U1,24,VDD_24*%
%TO.N,+3.3V*%
X128250000Y-38662500D03*
D20*
%TO.P,U1,25,PB12_25*%
%TO.N,unconnected-(U1-PB12-Pad25)*%
X129662500Y-37250000D03*
%TO.P,U1,26,PB13_26*%
%TO.N,unconnected-(U1-PB13-Pad26)*%
X129662500Y-36750000D03*
%TO.P,U1,27,PB14_27*%
%TO.N,unconnected-(U1-PB14-Pad27)*%
X129662500Y-36250000D03*
%TO.P,U1,28,PB15_28*%
%TO.N,unconnected-(U1-PB15-Pad28)*%
X129662500Y-35750000D03*
%TO.P,U1,29,PA8_29*%
%TO.N,unconnected-(U1-PA8-Pad29)*%
X129662500Y-35250000D03*
%TO.P,U1,30,PA9_30*%
%TO.N,unconnected-(U1-PA9-Pad30)*%
X129662500Y-34750000D03*
%TO.P,U1,31,PA10_31*%
%TO.N,unconnected-(U1-PA10-Pad31)*%
X129662500Y-34250000D03*
%TO.P,U1,32,PA11_32*%
%TO.N,/USB_D-*%
X129662500Y-33750000D03*
%TO.P,U1,33,PA12_33*%
%TO.N,/USB_D+*%
X129662500Y-33250000D03*
%TO.P,U1,34,PA13_34*%
%TO.N,/SWDIO*%
X129662500Y-32750000D03*
%TO.P,U1,35,VSS_35*%
%TO.N,GND*%
X129662500Y-32250000D03*
%TO.P,U1,36,VDD_36*%
%TO.N,+3.3V*%
X129662500Y-31750000D03*
D21*
%TO.P,U1,37,PA14_37*%
%TO.N,/SWCLK*%
X128250000Y-30337500D03*
%TO.P,U1,38,PA15_38*%
%TO.N,unconnected-(U1-PA15-Pad38)*%
X127750000Y-30337500D03*
%TO.P,U1,39,PB3_39*%
%TO.N,unconnected-(U1-PB3-Pad39)*%
X127250000Y-30337500D03*
%TO.P,U1,40,PB4_40*%
%TO.N,unconnected-(U1-PB4-Pad40)*%
X126750000Y-30337500D03*
%TO.P,U1,41,PB5_41*%
%TO.N,unconnected-(U1-PB5-Pad41)*%
X126250000Y-30337500D03*
%TO.P,U1,42,PB6_42*%
%TO.N,/USART1_TX*%
X125750000Y-30337500D03*
%TO.P,U1,43,PB7_43*%
%TO.N,/USART1_RX*%
X125250000Y-30337500D03*
%TO.P,U1,44,BOOT0_44*%
%TO.N,/BOOT0*%
X124750000Y-30337500D03*
%TO.P,U1,45,PB8_45*%
%TO.N,unconnected-(U1-PB8-Pad45)*%
X124250000Y-30337500D03*
%TO.P,U1,46,PB9_46*%
%TO.N,unconnected-(U1-PB9-Pad46)*%
X123750000Y-30337500D03*
%TO.P,U1,47,VSS_47*%
%TO.N,GND*%
X123250000Y-30337500D03*
%TO.P,U1,48,VDD_48*%
%TO.N,+3.3V*%
X122750000Y-30337500D03*
%TD*%
D17*
%TO.P,R4,1*%
%TO.N,+3.3V*%
X120990000Y-46000000D03*
%TO.P,R4,2*%
%TO.N,/I2C2_SDA*%
X122010000Y-46000000D03*
%TD*%
%TO.P,R3,1*%
%TO.N,+3.3V*%
X116490000Y-46000000D03*
%TO.P,R3,2*%
%TO.N,/I2C2_SCL*%
X117510000Y-46000000D03*
%TD*%
D22*
%TO.P,R2,1*%
%TO.N,/PWR_LED_K*%
X137510000Y-44000000D03*
%TO.P,R2,2*%
%TO.N,GND*%
X136490000Y-44000000D03*
%TD*%
D23*
%TO.P,R1,1*%
%TO.N,+3.3V*%
X134500000Y-31990000D03*
%TO.P,R1,2*%
%TO.N,/USB_D+*%
X134500000Y-33010000D03*
%TD*%
D16*
%TO.P,J3,1,Pin_1_1*%
%TO.N,+3.3V*%
X123810000Y-19500000D03*
D15*
%TO.P,J3,2,Pin_2_2*%
%TO.N,/USART1_TX*%
X121270000Y-19500000D03*
%TO.P,J3,3,Pin_3_3*%
%TO.N,/USART1_RX*%
X118730000Y-19500000D03*
%TO.P,J3,4,Pin_4_4*%
%TO.N,GND*%
X116190000Y-19500000D03*
%TD*%
D24*
%TO.P,J1,1,VBUS_1*%
%TO.N,VBUS*%
X138845000Y-34805000D03*
%TO.P,J1,2,D-_2*%
%TO.N,/USB_D-*%
X138845000Y-34155000D03*
%TO.P,J1,3,D+_3*%
%TO.N,/USB_D+*%
X138845000Y-33505000D03*
%TO.P,J1,4,ID_4*%
%TO.N,unconnected-(J1-ID-Pad4)*%
X138845000Y-32855000D03*
%TO.P,J1,5,GND_5*%
%TO.N,GND*%
X138845000Y-32205000D03*
D25*
%TO.P,J1,SH,Shield_SH*%
%TO.N,unconnected-(J1-Shield-PadSH)_1*%
X142695000Y-37380000D03*
D26*
%TO.N,unconnected-(J1-Shield-PadSH)_3*%
X138895000Y-37230000D03*
%TO.N,unconnected-(J1-Shield-PadSH)*%
X138895000Y-29780000D03*
D25*
%TO.N,unconnected-(J1-Shield-PadSH)_2*%
X142695000Y-29630000D03*
%TD*%
D27*
%TO.P,FB1,1*%
%TO.N,+3.3VA*%
X119000000Y-39462500D03*
%TO.P,FB1,2*%
%TO.N,+3.3V*%
X119000000Y-41037500D03*
%TD*%
D28*
%TO.P,D1,1,K_1*%
%TO.N,/PWR_LED_K*%
X138287500Y-42500000D03*
%TO.P,D1,2,A_2*%
%TO.N,+3.3V*%
X136712500Y-42500000D03*
%TD*%
D29*
%TO.P,C13,1*%
%TO.N,+3.3V*%
X134550000Y-39500000D03*
%TO.P,C13,2*%
%TO.N,GND*%
X136450000Y-39500000D03*
%TD*%
%TO.P,C12,1*%
%TO.N,VBUS*%
X130550000Y-39500000D03*
%TO.P,C12,2*%
%TO.N,GND*%
X132450000Y-39500000D03*
%TD*%
D30*
%TO.P,C9,1*%
%TO.N,/NRST*%
X120800000Y-40650000D03*
%TO.P,C9,2*%
%TO.N,GND*%
X121760000Y-40650000D03*
%TD*%
%TO.P,C8,1*%
%TO.N,+3.3V*%
X114520000Y-41500000D03*
%TO.P,C8,2*%
%TO.N,GND*%
X115480000Y-41500000D03*
%TD*%
%TO.P,C7,1*%
%TO.N,+3.3VA*%
X116520000Y-39250000D03*
%TO.P,C7,2*%
%TO.N,GND*%
X117480000Y-39250000D03*
%TD*%
D11*
%TO.P,C6,1*%
%TO.N,+3.3VA*%
X119500000Y-36230000D03*
%TO.P,C6,2*%
%TO.N,GND*%
X119500000Y-35270000D03*
%TD*%
D31*
%TO.P,C5,1*%
%TO.N,+3.3V*%
X132775000Y-28000000D03*
%TO.P,C5,2*%
%TO.N,GND*%
X131225000Y-28000000D03*
%TD*%
D11*
%TO.P,C4,1*%
%TO.N,+3.3V*%
X119500000Y-32230000D03*
%TO.P,C4,2*%
%TO.N,GND*%
X119500000Y-31270000D03*
%TD*%
D30*
%TO.P,C3,1*%
%TO.N,+3.3V*%
X122520000Y-28500000D03*
%TO.P,C3,2*%
%TO.N,GND*%
X123480000Y-28500000D03*
%TD*%
D32*
%TO.P,C2,1*%
%TO.N,+3.3V*%
X131500000Y-31270000D03*
%TO.P,C2,2*%
%TO.N,GND*%
X131500000Y-32230000D03*
%TD*%
D33*
%TO.N,GND*%
X115500000Y-31500000D03*
X118500000Y-36000000D03*
%TO.N,+3.3V*%
X134500000Y-24500000D03*
X127500000Y-23000000D03*
X124000000Y-23000000D03*
X121500000Y-28200000D03*
X133500000Y-32625000D03*
X133280025Y-35780025D03*
X134519975Y-36519975D03*
%TO.N,GND*%
X115480000Y-42480000D03*
%TO.N,+3.3V*%
X132000000Y-30500000D03*
X134500000Y-31000000D03*
%TO.N,GND*%
X136500000Y-45000000D03*
X136000000Y-41000000D03*
X136450000Y-38050000D03*
X133019975Y-38019975D03*
X115000000Y-38000000D03*
X122850000Y-40650000D03*
X113000000Y-26000000D03*
X140001185Y-32499540D03*
X133500000Y-29500000D03*
X123461343Y-31588817D03*
X120000000Y-30000000D03*
X127538657Y-37411183D03*
%TD*%
%TO.N,/HSE_OUT*%
D34*
X116352410Y-36332410D02*
X118000000Y-37980000D01*
X116350000Y-36332410D02*
X116352410Y-36332410D01*
%TO.N,GND*%
X118500000Y-36520000D02*
X118000000Y-37020000D01*
X118500000Y-36000000D02*
X118500000Y-36520000D01*
X118000000Y-33000000D02*
X116500000Y-31500000D01*
X118000000Y-33020000D02*
X118000000Y-33000000D01*
X116500000Y-31500000D02*
X115500000Y-31500000D01*
%TO.N,/HSE_IN*%
X118000000Y-33980000D02*
X118230000Y-33750000D01*
X118230000Y-33750000D02*
X121337500Y-33750000D01*
X114650000Y-33400000D02*
X115750000Y-34500000D01*
X115750000Y-34500000D02*
X117480000Y-34500000D01*
X117480000Y-34500000D02*
X118000000Y-33980000D01*
%TO.N,GND*%
D35*
X116350000Y-32350000D02*
X115500000Y-31500000D01*
X116350000Y-33400000D02*
X116350000Y-32350000D01*
D34*
X118500000Y-36000000D02*
X118770000Y-36000000D01*
X118770000Y-36000000D02*
X119500000Y-35270000D01*
%TO.N,+3.3V*%
D35*
X134500000Y-24500000D02*
X134500000Y-31000000D01*
X124000000Y-23000000D02*
X127500000Y-23000000D01*
X124000000Y-23000000D02*
X123810000Y-22810000D01*
X123810000Y-22810000D02*
X123810000Y-19500000D01*
X132775000Y-28000000D02*
X132775000Y-24225000D01*
X121500000Y-28500000D02*
X121500000Y-28200000D01*
X122520000Y-28500000D02*
X121500000Y-28500000D01*
D34*
X134180001Y-31990000D02*
X133500000Y-32670001D01*
X133500000Y-32670001D02*
X133500000Y-32625000D01*
X134500000Y-31990000D02*
X134180001Y-31990000D01*
D35*
X133060050Y-36000000D02*
X133280025Y-35780025D01*
X131000000Y-36500000D02*
X131500000Y-36000000D01*
X129500000Y-38000000D02*
X131000000Y-38000000D01*
X131500000Y-36000000D02*
X133060050Y-36000000D01*
X129500000Y-38500000D02*
X129500000Y-38000000D01*
X129067500Y-38932500D02*
X129500000Y-38500000D01*
X131000000Y-38000000D02*
X131000000Y-36500000D01*
X129067500Y-40500000D02*
X129067500Y-38932500D01*
X134550000Y-36550000D02*
X134519975Y-36519975D01*
X134550000Y-39500000D02*
X134550000Y-36550000D01*
X122750000Y-30337500D02*
X122750000Y-31250000D01*
X122750000Y-31250000D02*
X122250000Y-31750000D01*
X111700000Y-36305456D02*
X114947272Y-39552728D01*
D34*
X114500000Y-40000000D02*
X114947272Y-39552728D01*
X114500000Y-41000000D02*
X114500000Y-40000000D01*
X114520000Y-41020000D02*
X114500000Y-41000000D01*
X114520000Y-41500000D02*
X114520000Y-41020000D01*
D35*
X114947272Y-39552728D02*
X116144544Y-40750000D01*
%TO.N,GND*%
D34*
X115500000Y-42500000D02*
X115480000Y-42480000D01*
X115480000Y-41500000D02*
X115480000Y-42480000D01*
%TO.N,+3.3VA*%
D35*
X119500000Y-38962500D02*
X119000000Y-39462500D01*
X119500000Y-36230000D02*
X119500000Y-38962500D01*
%TO.N,+3.3V*%
X121337500Y-31750000D02*
X122250000Y-31750000D01*
X131500000Y-31000000D02*
X132000000Y-30500000D01*
X131500000Y-31270000D02*
X131500000Y-31000000D01*
D34*
X134500000Y-31990000D02*
X134500000Y-31000000D01*
D35*
X117710050Y-31800000D02*
X116160050Y-30250000D01*
X116160050Y-30250000D02*
X111430000Y-30250000D01*
X119230000Y-32230000D02*
X118800000Y-31800000D01*
X119500000Y-32230000D02*
X119230000Y-32230000D01*
X118800000Y-31800000D02*
X117710050Y-31800000D01*
%TO.N,GND*%
X136490000Y-44990000D02*
X136500000Y-45000000D01*
X136490000Y-44000000D02*
X136490000Y-44990000D01*
X134650000Y-42350000D02*
X136000000Y-41000000D01*
X134300000Y-42350000D02*
X134650000Y-42350000D01*
D34*
X136450000Y-39500000D02*
X136450000Y-38050000D01*
X136500000Y-38000000D02*
X136450000Y-38050000D01*
X133000000Y-38000000D02*
X133019975Y-38019975D01*
X132450000Y-38550000D02*
X133000000Y-38000000D01*
X132450000Y-39500000D02*
X132450000Y-38550000D01*
X114650000Y-37650000D02*
X115000000Y-38000000D01*
X114650000Y-35600000D02*
X114650000Y-37650000D01*
%TO.N,/HSE_OUT*%
X116350000Y-36332410D02*
X116350000Y-35600000D01*
%TO.N,GND*%
D35*
X116350000Y-33400000D02*
X116550000Y-33200000D01*
%TO.N,/HSE_OUT*%
X119250000Y-34250000D02*
X117900000Y-35600000D01*
X117900000Y-35600000D02*
X116350000Y-35600000D01*
X121337500Y-34250000D02*
X119250000Y-34250000D01*
%TO.N,GND*%
X116539999Y-38000000D02*
X115000000Y-38000000D01*
X117480000Y-38940001D02*
X116539999Y-38000000D01*
X117480000Y-39250000D02*
X117480000Y-38940001D01*
X123000000Y-40500000D02*
X122850000Y-40650000D01*
X121760000Y-40650000D02*
X122850000Y-40650000D01*
X112750000Y-25750000D02*
X113000000Y-26000000D01*
X111430000Y-25750000D02*
X112750000Y-25750000D01*
X140000000Y-32500000D02*
X140000460Y-32499540D01*
X139705000Y-32205000D02*
X140000000Y-32500000D01*
X138845000Y-32205000D02*
X139705000Y-32205000D01*
X140000460Y-32499540D02*
X140001185Y-32499540D01*
X133500000Y-30420000D02*
X133500000Y-29500000D01*
X131690000Y-32230000D02*
X133500000Y-30420000D01*
X131500000Y-32230000D02*
X131690000Y-32230000D01*
X132725000Y-29500000D02*
X133500000Y-29500000D01*
X131225000Y-28000000D02*
X132725000Y-29500000D01*
X129662500Y-32250000D02*
X131480000Y-32250000D01*
X131480000Y-32250000D02*
X131500000Y-32230000D01*
%TO.N,/HSE_IN*%
X121337500Y-33750000D02*
X121500000Y-33750000D01*
%TO.N,GND*%
X123500000Y-31500000D02*
X123461343Y-31538657D01*
X123461343Y-31538657D02*
X123461343Y-31588817D01*
X123250000Y-31250000D02*
X123500000Y-31500000D01*
X123250000Y-30337500D02*
X123250000Y-31250000D01*
X119500000Y-30500000D02*
X120000000Y-30000000D01*
X119500000Y-31270000D02*
X119500000Y-30500000D01*
X127538657Y-37461343D02*
X127538657Y-37411183D01*
X127500000Y-37500000D02*
X127538657Y-37461343D01*
X127750000Y-37750000D02*
X127500000Y-37500000D01*
X127750000Y-38662500D02*
X127750000Y-37750000D01*
X127750000Y-40317500D02*
X127932500Y-40500000D01*
X127750000Y-38662500D02*
X127750000Y-40317500D01*
%TO.N,/NRST*%
X122496880Y-37503120D02*
X120800000Y-39200000D01*
X122496880Y-35068760D02*
X122496880Y-37503120D01*
X122178120Y-34750000D02*
X122496880Y-35068760D01*
X121337500Y-34750000D02*
X122178120Y-34750000D01*
X120800000Y-39200000D02*
X120800000Y-40650000D01*
%TO.N,+3.3V*%
X120760000Y-49357057D02*
X120760000Y-46230000D01*
X119917057Y-50200000D02*
X120760000Y-49357057D01*
X120760000Y-46230000D02*
X120990000Y-46000000D01*
X116490000Y-47767057D02*
X118922943Y-50200000D01*
X118922943Y-50200000D02*
X119917057Y-50200000D01*
X116490000Y-46000000D02*
X116490000Y-47767057D01*
X116490000Y-42053154D02*
X117133154Y-41410000D01*
X116490000Y-46000000D02*
X116490000Y-42053154D01*
X116144544Y-40750000D02*
X116520000Y-40750000D01*
X111700000Y-30520000D02*
X111700000Y-36305456D01*
X111430000Y-30250000D02*
X111700000Y-30520000D01*
%TO.N,VBUS*%
X135245000Y-34805000D02*
X130550000Y-39500000D01*
X138845000Y-34805000D02*
X135245000Y-34805000D01*
%TO.N,/I2C2_SCL*%
X117510000Y-44010000D02*
X117510000Y-46000000D01*
X117500000Y-44000000D02*
X117510000Y-44010000D01*
X117500000Y-43500000D02*
X117500000Y-44000000D01*
X122753120Y-43500000D02*
X117500000Y-43500000D01*
X126750000Y-39503120D02*
X122753120Y-43500000D01*
X126750000Y-38662500D02*
X126750000Y-39503120D01*
%TO.N,/I2C2_SDA*%
X122010000Y-44990000D02*
X122010000Y-46000000D01*
X127250000Y-39750000D02*
X122010000Y-44990000D01*
X127250000Y-38662500D02*
X127250000Y-39750000D01*
%TO.N,+3.3V*%
X128250000Y-39682500D02*
X129067500Y-40500000D01*
X128250000Y-38662500D02*
X128250000Y-39682500D01*
%TO.N,/BOOT0*%
X123486846Y-27500000D02*
X121010000Y-27500000D01*
X124750000Y-28763154D02*
X123486846Y-27500000D01*
X124750000Y-30337500D02*
X124750000Y-28763154D01*
%TO.N,/USART1_RX*%
X118730000Y-21230000D02*
X118730000Y-19500000D01*
X125250000Y-27750000D02*
X118730000Y-21230000D01*
X125250000Y-30337500D02*
X125250000Y-27750000D01*
%TO.N,/USART1_TX*%
X121270000Y-21270000D02*
X121270000Y-19500000D01*
X125750000Y-25750000D02*
X121270000Y-21270000D01*
X125750000Y-30337500D02*
X125750000Y-25750000D01*
%TO.N,+3.3V*%
X135810000Y-21190000D02*
X135810000Y-19500000D01*
X132775000Y-24225000D02*
X135810000Y-21190000D01*
%TO.N,/SWCLK*%
X130730000Y-21270000D02*
X130730000Y-19500000D01*
X128250000Y-23750000D02*
X130730000Y-21270000D01*
X128250000Y-30337500D02*
X128250000Y-23750000D01*
%TO.N,/USB_D-*%
D34*
X138720000Y-34030000D02*
X138845000Y-34155000D01*
X138133520Y-34030000D02*
X138720000Y-34030000D01*
X130793751Y-33725000D02*
X137828520Y-33725000D01*
X130768751Y-33750000D02*
X130793751Y-33725000D01*
%TO.N,/USB_D+*%
X138831397Y-33505000D02*
X138845000Y-33505000D01*
%TO.N,/USB_D-*%
X137828520Y-33725000D02*
X138133520Y-34030000D01*
%TO.N,/USB_D+*%
X138133520Y-33380000D02*
X138706397Y-33380000D01*
X138706397Y-33380000D02*
X138831397Y-33505000D01*
%TO.N,/USB_D-*%
X129662500Y-33750000D02*
X130768751Y-33750000D01*
%TO.N,/USB_D+*%
X138028520Y-33275000D02*
X138133520Y-33380000D01*
%TO.N,+3.3V*%
D35*
X132000000Y-48650000D02*
X132000000Y-42350000D01*
%TO.N,GND*%
X136490000Y-44000000D02*
X136497896Y-44000000D01*
%TO.N,/PWR_LED_K*%
X138287500Y-43222500D02*
X137510000Y-44000000D01*
X138287500Y-42500000D02*
X138287500Y-43222500D01*
%TO.N,+3.3V*%
X133350000Y-43700000D02*
X132000000Y-42350000D01*
X135512500Y-43700000D02*
X133350000Y-43700000D01*
X136712500Y-42500000D02*
X135512500Y-43700000D01*
%TO.N,/SW_BOOT0*%
X116240000Y-28750000D02*
X111430000Y-28750000D01*
X117490000Y-30000000D02*
X116240000Y-28750000D01*
%TO.N,/I2C2_SDA*%
X122010000Y-48950000D02*
X121960000Y-49000000D01*
X122010000Y-46000000D02*
X122010000Y-48950000D01*
%TO.N,/I2C2_SCL*%
X117510000Y-46000000D02*
X117510000Y-47090000D01*
X117510000Y-47090000D02*
X119420000Y-49000000D01*
%TO.N,+3.3V*%
X116490000Y-48610000D02*
X116880000Y-49000000D01*
X116490000Y-46000000D02*
X116490000Y-48610000D01*
X130425000Y-27505592D02*
X130425000Y-30195000D01*
X130755592Y-27175000D02*
X130425000Y-27505592D01*
X130425000Y-30195000D02*
X131500000Y-31270000D01*
X132775000Y-28000000D02*
X131950000Y-27175000D01*
X131950000Y-27175000D02*
X130755592Y-27175000D01*
X130983120Y-31270000D02*
X131500000Y-31270000D01*
X130503120Y-31750000D02*
X130983120Y-31270000D01*
%TO.N,VBUS*%
X130550000Y-41500000D02*
X129700000Y-42350000D01*
X130550000Y-39500000D02*
X130550000Y-41500000D01*
%TO.N,GND*%
X134300000Y-41650000D02*
X134300000Y-42350000D01*
%TO.N,+3.3V*%
X132000000Y-42050000D02*
X132000000Y-42350000D01*
X134550000Y-39500000D02*
X132000000Y-42050000D01*
%TO.N,+3.3VA*%
X118552500Y-39910000D02*
X119000000Y-39462500D01*
X117133154Y-39910000D02*
X118552500Y-39910000D01*
X116520000Y-39296846D02*
X117133154Y-39910000D01*
X116520000Y-39250000D02*
X116520000Y-39296846D01*
%TO.N,+3.3V*%
X117133154Y-41410000D02*
X118627500Y-41410000D01*
X118627500Y-41410000D02*
X119000000Y-41037500D01*
X116520000Y-40796846D02*
X117133154Y-41410000D01*
X116520000Y-40750000D02*
X116520000Y-40796846D01*
X129662500Y-31750000D02*
X130503120Y-31750000D01*
%TO.N,GND*%
X119520000Y-35250000D02*
X121337500Y-35250000D01*
X119500000Y-35270000D02*
X119520000Y-35250000D01*
%TO.N,+3.3VA*%
X120016880Y-36230000D02*
X119500000Y-36230000D01*
X120496880Y-35750000D02*
X120016880Y-36230000D01*
X121337500Y-35750000D02*
X120496880Y-35750000D01*
%TO.N,+3.3V*%
X120289999Y-31750000D02*
X119809999Y-32230000D01*
X119809999Y-32230000D02*
X119500000Y-32230000D01*
X121337500Y-31750000D02*
X120289999Y-31750000D01*
%TO.N,GND*%
X123480000Y-29266880D02*
X123480000Y-28500000D01*
X123250000Y-29496880D02*
X123480000Y-29266880D01*
X123250000Y-30337500D02*
X123250000Y-29496880D01*
%TO.N,+3.3V*%
X122750000Y-28730000D02*
X122520000Y-28500000D01*
X122750000Y-30337500D02*
X122750000Y-28730000D01*
%TO.N,/SWDIO*%
X128503120Y-32431240D02*
X128503120Y-31425000D01*
X129662500Y-32750000D02*
X128821880Y-32750000D01*
X133270000Y-21230000D02*
X133270000Y-19500000D01*
X128821880Y-32750000D02*
X128503120Y-32431240D01*
X128503120Y-31425000D02*
X129925000Y-30003120D01*
X129925000Y-24575000D02*
X133270000Y-21230000D01*
X129925000Y-30003120D02*
X129925000Y-24575000D01*
%TO.N,/USB_D+*%
D34*
X130768751Y-33250000D02*
X130793751Y-33275000D01*
X129662500Y-33250000D02*
X130768751Y-33250000D01*
X130793751Y-33275000D02*
X138028520Y-33275000D01*
%TO.N,/BOOT0*%
D35*
X121010000Y-27500000D02*
X118510000Y-30000000D01*
%TD*%
M02*
