%TF.GenerationSoftware,KiCad,Pcbnew,10.0.6*%
%TF.CreationDate,2026-09-06T02:12:52+08:00*%
%TF.ProjectId,pcb_design,7063625f-6465-4736-9967-6e2e6b696361,rev?*%
%TF.SameCoordinates,Original*%
%TF.FileFunction,Copper,L2,Bot*%
%TF.FilePolarity,Positive*%
%FSLAX46Y46*%
G04 Gerber Fmt 4.6, Leading zero omitted, Abs format (unit mm)*
G04 Created by KiCad (PCBNEW 10.0.6) date 2026-09-06 02:12:52*
%MOMM*%
%LPD*%
G01*
G04 APERTURE LIST*
%TA.AperFunction,ComponentPad*%
%ADD10C,1.700000*%
%TD*%
%TA.AperFunction,ComponentPad*%
%ADD11R,1.700000X1.700000*%
%TD*%
%TA.AperFunction,ComponentPad*%
%ADD12O,1.800000X1.150000*%
%TD*%
%TA.AperFunction,ComponentPad*%
%ADD13O,2.000000X1.450000*%
%TD*%
%TA.AperFunction,ViaPad*%
%ADD14C,0.700000*%
%TD*%
%TA.AperFunction,Conductor*%
%ADD15C,0.300000*%
%TD*%
%TA.AperFunction,Conductor*%
%ADD16C,0.200000*%
%TD*%
G04 APERTURE END LIST*
D10*
%TO.P,J4,4,Pin_4_4*%
%TO.N,GND*%
X124500000Y-49000000D03*
%TO.P,J4,3,Pin_3_3*%
%TO.N,/I2C2_SDA*%
X121960000Y-49000000D03*
%TO.P,J4,2,Pin_2_2*%
%TO.N,/I2C2_SCL*%
X119420000Y-49000000D03*
D11*
%TO.P,J4,1,Pin_1_1*%
%TO.N,+3.3V*%
X116880000Y-49000000D03*
%TD*%
D10*
%TO.P,J2,4,Pin_4_4*%
%TO.N,GND*%
X128190000Y-19500000D03*
%TO.P,J2,3,Pin_3_3*%
%TO.N,/SWCLK*%
X130730000Y-19500000D03*
%TO.P,J2,2,Pin_2_2*%
%TO.N,/SWDIO*%
X133270000Y-19500000D03*
D11*
%TO.P,J2,1,Pin_1_1*%
%TO.N,+3.3V*%
X135810000Y-19500000D03*
%TD*%
%TO.P,J3,1,Pin_1_1*%
%TO.N,+3.3V*%
X123810000Y-19500000D03*
D10*
%TO.P,J3,2,Pin_2_2*%
%TO.N,/USART1_TX*%
X121270000Y-19500000D03*
%TO.P,J3,3,Pin_3_3*%
%TO.N,/USART1_RX*%
X118730000Y-19500000D03*
%TO.P,J3,4,Pin_4_4*%
%TO.N,GND*%
X116190000Y-19500000D03*
%TD*%
D12*
%TO.P,J1,SH,Shield_SH*%
%TO.N,unconnected-(J1-Shield-PadSH)_1*%
X142695000Y-37380000D03*
D13*
%TO.N,unconnected-(J1-Shield-PadSH)_3*%
X138895000Y-37230000D03*
%TO.N,unconnected-(J1-Shield-PadSH)*%
X138895000Y-29780000D03*
D12*
%TO.N,unconnected-(J1-Shield-PadSH)_2*%
X142695000Y-29630000D03*
%TD*%
D14*
%TO.N,GND*%
X115500000Y-31500000D03*
X118500000Y-36000000D03*
%TO.N,+3.3V*%
X134500000Y-24500000D03*
X127500000Y-23000000D03*
X124000000Y-23000000D03*
X121500000Y-28200000D03*
X133500000Y-32625000D03*
X133280025Y-35780025D03*
X134519975Y-36519975D03*
%TO.N,GND*%
X115480000Y-42480000D03*
%TO.N,+3.3V*%
X132000000Y-30500000D03*
X134500000Y-31000000D03*
%TO.N,GND*%
X136500000Y-45000000D03*
X136000000Y-41000000D03*
X136450000Y-38050000D03*
X133019975Y-38019975D03*
X115000000Y-38000000D03*
X122850000Y-40650000D03*
X113000000Y-26000000D03*
X140001185Y-32499540D03*
X133500000Y-29500000D03*
X123461343Y-31588817D03*
X120000000Y-30000000D03*
X127538657Y-37411183D03*
%TD*%
%TO.N,+3.3V*%
D15*
X133000000Y-23000000D02*
X134500000Y-24500000D01*
X127500000Y-23000000D02*
X133000000Y-23000000D01*
X124000000Y-23500000D02*
X124000000Y-23000000D01*
X120500000Y-27000000D02*
X124000000Y-23500000D01*
X120500000Y-27500000D02*
X120500000Y-27000000D01*
X121500000Y-28500000D02*
X120500000Y-27500000D01*
X121500000Y-28200000D02*
X121500000Y-28500000D01*
D16*
X133500000Y-35560050D02*
X133280025Y-35780025D01*
X133500000Y-32625000D02*
X133500000Y-35560050D01*
D15*
X133500000Y-36000000D02*
X133280025Y-35780025D01*
X134000000Y-36000000D02*
X133500000Y-36000000D01*
X134519975Y-36519975D02*
X134000000Y-36000000D01*
X134000000Y-30500000D02*
X134500000Y-31000000D01*
X132000000Y-30500000D02*
X134000000Y-30500000D01*
%TD*%
%TA.AperFunction,Conductor*%
%TO.N,GND*%
G36*
X141503243Y-17500669D02*
G01*
X141807061Y-17516591D01*
X141819937Y-17517945D01*
X142117212Y-17565029D01*
X142129896Y-17567724D01*
X142420626Y-17645625D01*
X142432967Y-17649636D01*
X142713935Y-17757489D01*
X142725790Y-17762767D01*
X142993976Y-17899415D01*
X143005192Y-17905891D01*
X143257619Y-18069818D01*
X143268100Y-18077433D01*
X143479850Y-18248904D01*
X143502011Y-18266850D01*
X143511656Y-18275535D01*
X143724464Y-18488343D01*
X143733149Y-18497988D01*
X143922564Y-18731896D01*
X143930183Y-18742384D01*
X144094105Y-18994801D01*
X144100591Y-19006035D01*
X144237231Y-19274206D01*
X144242510Y-19286064D01*
X144350363Y-19567032D01*
X144354374Y-19579375D01*
X144432273Y-19870097D01*
X144434971Y-19882793D01*
X144482052Y-20180046D01*
X144483409Y-20192955D01*
X144499330Y-20496756D01*
X144499500Y-20503245D01*
X144499500Y-47996754D01*
X144499330Y-48003243D01*
X144483409Y-48307044D01*
X144482052Y-48319953D01*
X144434971Y-48617206D01*
X144432273Y-48629902D01*
X144354374Y-48920624D01*
X144350363Y-48932967D01*
X144242510Y-49213935D01*
X144237231Y-49225793D01*
X144100591Y-49493964D01*
X144094101Y-49505204D01*
X143930188Y-49757609D01*
X143922559Y-49768110D01*
X143733149Y-50002011D01*
X143724464Y-50011656D01*
X143511656Y-50224464D01*
X143502011Y-50233149D01*
X143268110Y-50422559D01*
X143257609Y-50430188D01*
X143005204Y-50594101D01*
X142993964Y-50600591D01*
X142725793Y-50737231D01*
X142713935Y-50742510D01*
X142432967Y-50850363D01*
X142420624Y-50854374D01*
X142129902Y-50932273D01*
X142117206Y-50934971D01*
X141819953Y-50982052D01*
X141807044Y-50983409D01*
X141503244Y-50999330D01*
X141496755Y-50999500D01*
X111003245Y-50999500D01*
X110996756Y-50999330D01*
X110692955Y-50983409D01*
X110680046Y-50982052D01*
X110382793Y-50934971D01*
X110370097Y-50932273D01*
X110079375Y-50854374D01*
X110067032Y-50850363D01*
X109786064Y-50742510D01*
X109774206Y-50737231D01*
X109643585Y-50670676D01*
X109506029Y-50600587D01*
X109494801Y-50594105D01*
X109242384Y-50430183D01*
X109231896Y-50422564D01*
X108997988Y-50233149D01*
X108988343Y-50224464D01*
X108775535Y-50011656D01*
X108766850Y-50002011D01*
X108682523Y-49897876D01*
X108577433Y-49768100D01*
X108569818Y-49757619D01*
X108405891Y-49505192D01*
X108399415Y-49493976D01*
X108262767Y-49225790D01*
X108257489Y-49213935D01*
X108175367Y-49000000D01*
X108149635Y-48932966D01*
X108145625Y-48920624D01*
X108134684Y-48879792D01*
X108067724Y-48629896D01*
X108065028Y-48617206D01*
X108017945Y-48319937D01*
X108016591Y-48307061D01*
X108000670Y-48003243D01*
X108000500Y-47996754D01*
X108000500Y-47893713D01*
X109649500Y-47893713D01*
X109649500Y-48106286D01*
X109682324Y-48313533D01*
X109682754Y-48316243D01*
X109694288Y-48351742D01*
X109748444Y-48518414D01*
X109844951Y-48707820D01*
X109969890Y-48879786D01*
X110120213Y-49030109D01*
X110292179Y-49155048D01*
X110292181Y-49155049D01*
X110292184Y-49155051D01*
X110481588Y-49251557D01*
X110683757Y-49317246D01*
X110893713Y-49350500D01*
X110893714Y-49350500D01*
X111106286Y-49350500D01*
X111106287Y-49350500D01*
X111316243Y-49317246D01*
X111518412Y-49251557D01*
X111707816Y-49155051D01*
X111729789Y-49139086D01*
X111879786Y-49030109D01*
X111879788Y-49030106D01*
X111879792Y-49030104D01*
X112030104Y-48879792D01*
X112030106Y-48879788D01*
X112030109Y-48879786D01*
X112155048Y-48707820D01*
X112155047Y-48707820D01*
X112155051Y-48707816D01*
X112251557Y-48518412D01*
X112317246Y-48316243D01*
X112350500Y-48106287D01*
X112350500Y-48102135D01*
X115529500Y-48102135D01*
X115529500Y-49897870D01*
X115529501Y-49897876D01*
X115535908Y-49957483D01*
X115586202Y-50092328D01*
X115586206Y-50092335D01*
X115672452Y-50207544D01*
X115672455Y-50207547D01*
X115787664Y-50293793D01*
X115787671Y-50293797D01*
X115922517Y-50344091D01*
X115922516Y-50344091D01*
X115929444Y-50344835D01*
X115982127Y-50350500D01*
X117777872Y-50350499D01*
X117837483Y-50344091D01*
X117972331Y-50293796D01*
X118087546Y-50207546D01*
X118173796Y-50092331D01*
X118222810Y-49960916D01*
X118264681Y-49904984D01*
X118330145Y-49880566D01*
X118398418Y-49895417D01*
X118426673Y-49916569D01*
X118540213Y-50030109D01*
X118712179Y-50155048D01*
X118712181Y-50155049D01*
X118712184Y-50155051D01*
X118901588Y-50251557D01*
X119103757Y-50317246D01*
X119313713Y-50350500D01*
X119313714Y-50350500D01*
X119526286Y-50350500D01*
X119526287Y-50350500D01*
X119736243Y-50317246D01*
X119938412Y-50251557D01*
X120127816Y-50155051D01*
X120214138Y-50092335D01*
X120299786Y-50030109D01*
X120299788Y-50030106D01*
X120299792Y-50030104D01*
X120450104Y-49879792D01*
X120450106Y-49879788D01*
X120450109Y-49879786D01*
X120575048Y-49707820D01*
X120575047Y-49707820D01*
X120575051Y-49707816D01*
X120579514Y-49699054D01*
X120627488Y-49648259D01*
X120695308Y-49631463D01*
X120761444Y-49653999D01*
X120800486Y-49699056D01*
X120804951Y-49707820D01*
X120929890Y-49879786D01*
X121080213Y-50030109D01*
X121252179Y-50155048D01*
X121252181Y-50155049D01*
X121252184Y-50155051D01*
X121441588Y-50251557D01*
X121643757Y-50317246D01*
X121853713Y-50350500D01*
X121853714Y-50350500D01*
X122066286Y-50350500D01*
X122066287Y-50350500D01*
X122276243Y-50317246D01*
X122478412Y-50251557D01*
X122667816Y-50155051D01*
X122754138Y-50092335D01*
X122839786Y-50030109D01*
X122839788Y-50030106D01*
X122839792Y-50030104D01*
X122990104Y-49879792D01*
X122990106Y-49879788D01*
X122990109Y-49879786D01*
X123075890Y-49761717D01*
X123115051Y-49707816D01*
X123119793Y-49698508D01*
X123167763Y-49647711D01*
X123235583Y-49630911D01*
X123301719Y-49653445D01*
X123340763Y-49698500D01*
X123345373Y-49707547D01*
X123384728Y-49761716D01*
X124017037Y-49129408D01*
X124034075Y-49192993D01*
X124099901Y-49307007D01*
X124192993Y-49400099D01*
X124307007Y-49465925D01*
X124370590Y-49482962D01*
X123738282Y-50115269D01*
X123738282Y-50115270D01*
X123792449Y-50154624D01*
X123981782Y-50251095D01*
X124183870Y-50316757D01*
X124393754Y-50350000D01*
X124606246Y-50350000D01*
X124816127Y-50316757D01*
X124816130Y-50316757D01*
X125018217Y-50251095D01*
X125207554Y-50154622D01*
X125261716Y-50115270D01*
X125261717Y-50115270D01*
X124629408Y-49482962D01*
X124692993Y-49465925D01*
X124807007Y-49400099D01*
X124900099Y-49307007D01*
X124965925Y-49192993D01*
X124982962Y-49129409D01*
X125615270Y-49761717D01*
X125615270Y-49761716D01*
X125654622Y-49707554D01*
X125751095Y-49518217D01*
X125816757Y-49316130D01*
X125816757Y-49316127D01*
X125850000Y-49106246D01*
X125850000Y-48893753D01*
X125816757Y-48683872D01*
X125816757Y-48683869D01*
X125751095Y-48481782D01*
X125654624Y-48292449D01*
X125615270Y-48238282D01*
X125615269Y-48238282D01*
X124982962Y-48870590D01*
X124965925Y-48807007D01*
X124900099Y-48692993D01*
X124807007Y-48599901D01*
X124692993Y-48534075D01*
X124629409Y-48517037D01*
X125252731Y-47893713D01*
X140149500Y-47893713D01*
X140149500Y-48106286D01*
X140182324Y-48313533D01*
X140182754Y-48316243D01*
X140194288Y-48351742D01*
X140248444Y-48518414D01*
X140344951Y-48707820D01*
X140469890Y-48879786D01*
X140620213Y-49030109D01*
X140792179Y-49155048D01*
X140792181Y-49155049D01*
X140792184Y-49155051D01*
X140981588Y-49251557D01*
X141183757Y-49317246D01*
X141393713Y-49350500D01*
X141393714Y-49350500D01*
X141606286Y-49350500D01*
X141606287Y-49350500D01*
X141816243Y-49317246D01*
X142018412Y-49251557D01*
X142207816Y-49155051D01*
X142229789Y-49139086D01*
X142379786Y-49030109D01*
X142379788Y-49030106D01*
X142379792Y-49030104D01*
X142530104Y-48879792D01*
X142530106Y-48879788D01*
X142530109Y-48879786D01*
X142655048Y-48707820D01*
X142655047Y-48707820D01*
X142655051Y-48707816D01*
X142751557Y-48518412D01*
X142817246Y-48316243D01*
X142850500Y-48106287D01*
X142850500Y-47893713D01*
X142817246Y-47683757D01*
X142751557Y-47481588D01*
X142655051Y-47292184D01*
X142655049Y-47292181D01*
X142655048Y-47292179D01*
X142530109Y-47120213D01*
X142379786Y-46969890D01*
X142207820Y-46844951D01*
X142018414Y-46748444D01*
X142018413Y-46748443D01*
X142018412Y-46748443D01*
X141816243Y-46682754D01*
X141816241Y-46682753D01*
X141816240Y-46682753D01*
X141654957Y-46657208D01*
X141606287Y-46649500D01*
X141393713Y-46649500D01*
X141345042Y-46657208D01*
X141183760Y-46682753D01*
X140981585Y-46748444D01*
X140792179Y-46844951D01*
X140620213Y-46969890D01*
X140469890Y-47120213D01*
X140344951Y-47292179D01*
X140248444Y-47481585D01*
X140182753Y-47683760D01*
X140149500Y-47893713D01*
X125252731Y-47893713D01*
X125261716Y-47884728D01*
X125207550Y-47845375D01*
X125018217Y-47748904D01*
X124816129Y-47683242D01*
X124606246Y-47650000D01*
X124393754Y-47650000D01*
X124183872Y-47683242D01*
X124183869Y-47683242D01*
X123981782Y-47748904D01*
X123792439Y-47845380D01*
X123738282Y-47884727D01*
X123738282Y-47884728D01*
X124370591Y-48517037D01*
X124307007Y-48534075D01*
X124192993Y-48599901D01*
X124099901Y-48692993D01*
X124034075Y-48807007D01*
X124017037Y-48870591D01*
X123384728Y-48238282D01*
X123384727Y-48238282D01*
X123345380Y-48292440D01*
X123345376Y-48292446D01*
X123340760Y-48301505D01*
X123292781Y-48352297D01*
X123224959Y-48369087D01*
X123158826Y-48346543D01*
X123119794Y-48301493D01*
X123115051Y-48292184D01*
X123115049Y-48292181D01*
X123115048Y-48292179D01*
X122990109Y-48120213D01*
X122839786Y-47969890D01*
X122667820Y-47844951D01*
X122478414Y-47748444D01*
X122478413Y-47748443D01*
X122478412Y-47748443D01*
X122276243Y-47682754D01*
X122276241Y-47682753D01*
X122276240Y-47682753D01*
X122114957Y-47657208D01*
X122066287Y-47649500D01*
X121853713Y-47649500D01*
X121805042Y-47657208D01*
X121643760Y-47682753D01*
X121441585Y-47748444D01*
X121252179Y-47844951D01*
X121080213Y-47969890D01*
X120929890Y-48120213D01*
X120804949Y-48292182D01*
X120800484Y-48300946D01*
X120752509Y-48351742D01*
X120684688Y-48368536D01*
X120618553Y-48345998D01*
X120579516Y-48300946D01*
X120575050Y-48292182D01*
X120450109Y-48120213D01*
X120299786Y-47969890D01*
X120127820Y-47844951D01*
X119938414Y-47748444D01*
X119938413Y-47748443D01*
X119938412Y-47748443D01*
X119736243Y-47682754D01*
X119736241Y-47682753D01*
X119736240Y-47682753D01*
X119574957Y-47657208D01*
X119526287Y-47649500D01*
X119313713Y-47649500D01*
X119265042Y-47657208D01*
X119103760Y-47682753D01*
X118901585Y-47748444D01*
X118712179Y-47844951D01*
X118540215Y-47969889D01*
X118426673Y-48083431D01*
X118365350Y-48116915D01*
X118295658Y-48111931D01*
X118239725Y-48070059D01*
X118222810Y-48039082D01*
X118173797Y-47907671D01*
X118173793Y-47907664D01*
X118087547Y-47792455D01*
X118087544Y-47792452D01*
X117972335Y-47706206D01*
X117972328Y-47706202D01*
X117837482Y-47655908D01*
X117837483Y-47655908D01*
X117777883Y-47649501D01*
X117777881Y-47649500D01*
X117777873Y-47649500D01*
X117777864Y-47649500D01*
X115982129Y-47649500D01*
X115982123Y-47649501D01*
X115922516Y-47655908D01*
X115787671Y-47706202D01*
X115787664Y-47706206D01*
X115672455Y-47792452D01*
X115672452Y-47792455D01*
X115586206Y-47907664D01*
X115586202Y-47907671D01*
X115535908Y-48042517D01*
X115529501Y-48102116D01*
X115529500Y-48102135D01*
X112350500Y-48102135D01*
X112350500Y-47893713D01*
X112317246Y-47683757D01*
X112251557Y-47481588D01*
X112155051Y-47292184D01*
X112155049Y-47292181D01*
X112155048Y-47292179D01*
X112030109Y-47120213D01*
X111879786Y-46969890D01*
X111707820Y-46844951D01*
X111518414Y-46748444D01*
X111518413Y-46748443D01*
X111518412Y-46748443D01*
X111316243Y-46682754D01*
X111316241Y-46682753D01*
X111316240Y-46682753D01*
X111154957Y-46657208D01*
X111106287Y-46649500D01*
X110893713Y-46649500D01*
X110845042Y-46657208D01*
X110683760Y-46682753D01*
X110481585Y-46748444D01*
X110292179Y-46844951D01*
X110120213Y-46969890D01*
X109969890Y-47120213D01*
X109844951Y-47292179D01*
X109748444Y-47481585D01*
X109682753Y-47683760D01*
X109649500Y-47893713D01*
X108000500Y-47893713D01*
X108000500Y-30416228D01*
X131149500Y-30416228D01*
X131149500Y-30583771D01*
X131182182Y-30748074D01*
X131182184Y-30748082D01*
X131246295Y-30902860D01*
X131339373Y-31042162D01*
X131457837Y-31160626D01*
X131473959Y-31171398D01*
X131597137Y-31253703D01*
X131751918Y-31317816D01*
X131916228Y-31350499D01*
X131916232Y-31350500D01*
X131916233Y-31350500D01*
X132083768Y-31350500D01*
X132083769Y-31350499D01*
X132248082Y-31317816D01*
X132402863Y-31253703D01*
X132526041Y-31171398D01*
X132592719Y-31150520D01*
X132594932Y-31150500D01*
X133561010Y-31150500D01*
X133628049Y-31170185D01*
X133673804Y-31222989D01*
X133680058Y-31242358D01*
X133680415Y-31242250D01*
X133682184Y-31248082D01*
X133746295Y-31402860D01*
X133839373Y-31542162D01*
X133915543Y-31618332D01*
X133949028Y-31679655D01*
X133944044Y-31749347D01*
X133902172Y-31805280D01*
X133836708Y-31829697D01*
X133780410Y-31820575D01*
X133748082Y-31807184D01*
X133748077Y-31807183D01*
X133748074Y-31807182D01*
X133583771Y-31774500D01*
X133583767Y-31774500D01*
X133416233Y-31774500D01*
X133416228Y-31774500D01*
X133251925Y-31807182D01*
X133251917Y-31807184D01*
X133097139Y-31871295D01*
X132957837Y-31964373D01*
X132839373Y-32082837D01*
X132746295Y-32222139D01*
X132682184Y-32376917D01*
X132682182Y-32376925D01*
X132649500Y-32541228D01*
X132649500Y-32708771D01*
X132682182Y-32873074D01*
X132682184Y-32873082D01*
X132746295Y-33027860D01*
X132839372Y-33167160D01*
X132839373Y-33167161D01*
X132839374Y-33167162D01*
X132863181Y-33190969D01*
X132896666Y-33252290D01*
X132899500Y-33278650D01*
X132899500Y-34945117D01*
X132879815Y-35012156D01*
X132844391Y-35048219D01*
X132737863Y-35119398D01*
X132737859Y-35119401D01*
X132619398Y-35237862D01*
X132526320Y-35377164D01*
X132462209Y-35531942D01*
X132462207Y-35531950D01*
X132429525Y-35696253D01*
X132429525Y-35863796D01*
X132462207Y-36028099D01*
X132462209Y-36028107D01*
X132526320Y-36182885D01*
X132619398Y-36322187D01*
X132737862Y-36440651D01*
X132767045Y-36460150D01*
X132877162Y-36533728D01*
X133031943Y-36597841D01*
X133196253Y-36630524D01*
X133196257Y-36630525D01*
X133196258Y-36630525D01*
X133323301Y-36630525D01*
X133347491Y-36632907D01*
X133396104Y-36642577D01*
X133435930Y-36650500D01*
X133435931Y-36650500D01*
X133577011Y-36650500D01*
X133644050Y-36670185D01*
X133689805Y-36722989D01*
X133698628Y-36750308D01*
X133702157Y-36768051D01*
X133702159Y-36768057D01*
X133766270Y-36922835D01*
X133859348Y-37062137D01*
X133977812Y-37180601D01*
X134070469Y-37242512D01*
X134117112Y-37273678D01*
X134271893Y-37337791D01*
X134436203Y-37370474D01*
X134436207Y-37370475D01*
X134436208Y-37370475D01*
X134603743Y-37370475D01*
X134603744Y-37370474D01*
X134768057Y-37337791D01*
X134922838Y-37273678D01*
X135062137Y-37180601D01*
X135109187Y-37133551D01*
X137394500Y-37133551D01*
X137394500Y-37326449D01*
X137396297Y-37337792D01*
X137424675Y-37516969D01*
X137424676Y-37516972D01*
X137484285Y-37700429D01*
X137571859Y-37872302D01*
X137685241Y-38028359D01*
X137821641Y-38164759D01*
X137977698Y-38278141D01*
X138149571Y-38365715D01*
X138333028Y-38425324D01*
X138523551Y-38455500D01*
X138523552Y-38455500D01*
X139266448Y-38455500D01*
X139266449Y-38455500D01*
X139456972Y-38425324D01*
X139640429Y-38365715D01*
X139812302Y-38278141D01*
X139968359Y-38164759D01*
X140104759Y-38028359D01*
X140218141Y-37872302D01*
X140305715Y-37700429D01*
X140365324Y-37516972D01*
X140395500Y-37326449D01*
X140395500Y-37295350D01*
X141294500Y-37295350D01*
X141294500Y-37464649D01*
X141320981Y-37631847D01*
X141373296Y-37792853D01*
X141450152Y-37943688D01*
X141549648Y-38080634D01*
X141549652Y-38080639D01*
X141669360Y-38200347D01*
X141669365Y-38200351D01*
X141776434Y-38278140D01*
X141806315Y-38299850D01*
X141902425Y-38348820D01*
X141957146Y-38376703D01*
X141957148Y-38376703D01*
X141957151Y-38376705D01*
X142043450Y-38404745D01*
X142118152Y-38429018D01*
X142285351Y-38455500D01*
X142285356Y-38455500D01*
X143104649Y-38455500D01*
X143271847Y-38429018D01*
X143283216Y-38425324D01*
X143432849Y-38376705D01*
X143583685Y-38299850D01*
X143720641Y-38200346D01*
X143840346Y-38080641D01*
X143939850Y-37943685D01*
X144016705Y-37792849D01*
X144069018Y-37631847D01*
X144095500Y-37464649D01*
X144095500Y-37295350D01*
X144069018Y-37128152D01*
X144016703Y-36967146D01*
X143988820Y-36912425D01*
X143939850Y-36816315D01*
X143898621Y-36759568D01*
X143840351Y-36679365D01*
X143840347Y-36679360D01*
X143720639Y-36559652D01*
X143720634Y-36559648D01*
X143583688Y-36460152D01*
X143583687Y-36460151D01*
X143583685Y-36460150D01*
X143527727Y-36431638D01*
X143432853Y-36383296D01*
X143271847Y-36330981D01*
X143104649Y-36304500D01*
X143104644Y-36304500D01*
X142285356Y-36304500D01*
X142285351Y-36304500D01*
X142118152Y-36330981D01*
X141957146Y-36383296D01*
X141806311Y-36460152D01*
X141669365Y-36559648D01*
X141669360Y-36559652D01*
X141549652Y-36679360D01*
X141549648Y-36679365D01*
X141450152Y-36816311D01*
X141373296Y-36967146D01*
X141320981Y-37128152D01*
X141294500Y-37295350D01*
X140395500Y-37295350D01*
X140395500Y-37133551D01*
X140365324Y-36943028D01*
X140358060Y-36920675D01*
X140356066Y-36850835D01*
X140392146Y-36791002D01*
X140407097Y-36779258D01*
X140519035Y-36704464D01*
X140644464Y-36579035D01*
X140743013Y-36431547D01*
X140810894Y-36267666D01*
X140845500Y-36093691D01*
X140845500Y-35916309D01*
X140845500Y-35916306D01*
X140845499Y-35916304D01*
X140810896Y-35742341D01*
X140810893Y-35742332D01*
X140743016Y-35578459D01*
X140743009Y-35578446D01*
X140644464Y-35430965D01*
X140644461Y-35430961D01*
X140519038Y-35305538D01*
X140519034Y-35305535D01*
X140371553Y-35206990D01*
X140371540Y-35206983D01*
X140207667Y-35139106D01*
X140207658Y-35139103D01*
X140033694Y-35104500D01*
X140033691Y-35104500D01*
X139856309Y-35104500D01*
X139856306Y-35104500D01*
X139682341Y-35139103D01*
X139682332Y-35139106D01*
X139518459Y-35206983D01*
X139518446Y-35206990D01*
X139370965Y-35305535D01*
X139370961Y-35305538D01*
X139245538Y-35430961D01*
X139245535Y-35430965D01*
X139146990Y-35578446D01*
X139146983Y-35578459D01*
X139079106Y-35742332D01*
X139079104Y-35742340D01*
X139046810Y-35904692D01*
X139014425Y-35966603D01*
X138953709Y-36001177D01*
X138925193Y-36004500D01*
X138523551Y-36004500D01*
X138487697Y-36010178D01*
X138333030Y-36034675D01*
X138149568Y-36094286D01*
X137977697Y-36181859D01*
X137888661Y-36246547D01*
X137821641Y-36295241D01*
X137821639Y-36295243D01*
X137821638Y-36295243D01*
X137685243Y-36431638D01*
X137685243Y-36431639D01*
X137685241Y-36431641D01*
X137681927Y-36436203D01*
X137571859Y-36587697D01*
X137484286Y-36759568D01*
X137424675Y-36943030D01*
X137420855Y-36967151D01*
X137394500Y-37133551D01*
X135109187Y-37133551D01*
X135180601Y-37062137D01*
X135180612Y-37062120D01*
X135182172Y-37059787D01*
X135221986Y-37000199D01*
X135273678Y-36922838D01*
X135337791Y-36768057D01*
X135370475Y-36603742D01*
X135370475Y-36436208D01*
X135337791Y-36271893D01*
X135273678Y-36117112D01*
X135198433Y-36004500D01*
X135180601Y-35977812D01*
X135062137Y-35859348D01*
X134922835Y-35766270D01*
X134768057Y-35702159D01*
X134768049Y-35702157D01*
X134622756Y-35673256D01*
X134560845Y-35640871D01*
X134559319Y-35639373D01*
X134414669Y-35494723D01*
X134308127Y-35423535D01*
X134189744Y-35374499D01*
X134189742Y-35374498D01*
X134188495Y-35374120D01*
X134187922Y-35373744D01*
X134184116Y-35372168D01*
X134184415Y-35371445D01*
X134130059Y-35335817D01*
X134101608Y-35272003D01*
X134100500Y-35255462D01*
X134100500Y-33278650D01*
X134120185Y-33211611D01*
X134136815Y-33190972D01*
X134160626Y-33167162D01*
X134253703Y-33027863D01*
X134317816Y-32873082D01*
X134350500Y-32708767D01*
X134350500Y-32541233D01*
X134317816Y-32376918D01*
X134253703Y-32222137D01*
X134222537Y-32175494D01*
X134160626Y-32082837D01*
X134084456Y-32006667D01*
X134050971Y-31945344D01*
X134055955Y-31875652D01*
X134097827Y-31819719D01*
X134163291Y-31795302D01*
X134219589Y-31804424D01*
X134251918Y-31817816D01*
X134416228Y-31850499D01*
X134416232Y-31850500D01*
X134416233Y-31850500D01*
X134583768Y-31850500D01*
X134583769Y-31850499D01*
X134748082Y-31817816D01*
X134902863Y-31753703D01*
X135042162Y-31660626D01*
X135160626Y-31542162D01*
X135253703Y-31402863D01*
X135317816Y-31248082D01*
X135350500Y-31083767D01*
X135350500Y-30916233D01*
X135317816Y-30751918D01*
X135253703Y-30597137D01*
X135222105Y-30549847D01*
X135160626Y-30457837D01*
X135042162Y-30339373D01*
X134902860Y-30246295D01*
X134748082Y-30182184D01*
X134748074Y-30182182D01*
X134602781Y-30153281D01*
X134540870Y-30120896D01*
X134539344Y-30119398D01*
X134414669Y-29994723D01*
X134308127Y-29923535D01*
X134189744Y-29874499D01*
X134189738Y-29874497D01*
X134064071Y-29849500D01*
X134064069Y-29849500D01*
X132594932Y-29849500D01*
X132576788Y-29844172D01*
X132557879Y-29843835D01*
X132529664Y-29830335D01*
X132527893Y-29829815D01*
X132526042Y-29828602D01*
X132456018Y-29781814D01*
X132455968Y-29781781D01*
X132402860Y-29746295D01*
X132251382Y-29683551D01*
X137394500Y-29683551D01*
X137394500Y-29876448D01*
X137424675Y-30066969D01*
X137424676Y-30066972D01*
X137484285Y-30250429D01*
X137571859Y-30422302D01*
X137685241Y-30578359D01*
X137821641Y-30714759D01*
X137977698Y-30828141D01*
X138149571Y-30915715D01*
X138333028Y-30975324D01*
X138523551Y-31005500D01*
X138925193Y-31005500D01*
X138992232Y-31025185D01*
X139037987Y-31077989D01*
X139046810Y-31105308D01*
X139079104Y-31267659D01*
X139079106Y-31267667D01*
X139146983Y-31431540D01*
X139146990Y-31431553D01*
X139245535Y-31579034D01*
X139245538Y-31579038D01*
X139370961Y-31704461D01*
X139370965Y-31704464D01*
X139518446Y-31803009D01*
X139518459Y-31803016D01*
X139633098Y-31850500D01*
X139682334Y-31870894D01*
X139682336Y-31870894D01*
X139682341Y-31870896D01*
X139856304Y-31905499D01*
X139856307Y-31905500D01*
X139856309Y-31905500D01*
X140033693Y-31905500D01*
X140033694Y-31905499D01*
X140091682Y-31893964D01*
X140207658Y-31870896D01*
X140207661Y-31870894D01*
X140207666Y-31870894D01*
X140371547Y-31803013D01*
X140519035Y-31704464D01*
X140644464Y-31579035D01*
X140743013Y-31431547D01*
X140810894Y-31267666D01*
X140810894Y-31267661D01*
X140810896Y-31267658D01*
X140845499Y-31093695D01*
X140845500Y-31093693D01*
X140845500Y-30916306D01*
X140845499Y-30916304D01*
X140810896Y-30742341D01*
X140810893Y-30742332D01*
X140743016Y-30578459D01*
X140743009Y-30578446D01*
X140644464Y-30430965D01*
X140644461Y-30430961D01*
X140519038Y-30305538D01*
X140519034Y-30305535D01*
X140407101Y-30230743D01*
X140362296Y-30177130D01*
X140353589Y-30107805D01*
X140358057Y-30089334D01*
X140365324Y-30066972D01*
X140395500Y-29876449D01*
X140395500Y-29683551D01*
X140373611Y-29545350D01*
X141294500Y-29545350D01*
X141294500Y-29714649D01*
X141320981Y-29881847D01*
X141373296Y-30042853D01*
X141412998Y-30120771D01*
X141447307Y-30188106D01*
X141450152Y-30193688D01*
X141549648Y-30330634D01*
X141549652Y-30330639D01*
X141669360Y-30450347D01*
X141669365Y-30450351D01*
X141788817Y-30537137D01*
X141806315Y-30549850D01*
X141872881Y-30583767D01*
X141957146Y-30626703D01*
X141957148Y-30626703D01*
X141957151Y-30626705D01*
X142043450Y-30654745D01*
X142118152Y-30679018D01*
X142285351Y-30705500D01*
X142285356Y-30705500D01*
X143104649Y-30705500D01*
X143271847Y-30679018D01*
X143432849Y-30626705D01*
X143583685Y-30549850D01*
X143720641Y-30450346D01*
X143840346Y-30330641D01*
X143939850Y-30193685D01*
X144016705Y-30042849D01*
X144069018Y-29881847D01*
X144074985Y-29844172D01*
X144095500Y-29714649D01*
X144095500Y-29545350D01*
X144069018Y-29378152D01*
X144042218Y-29295672D01*
X144016705Y-29217151D01*
X144016703Y-29217148D01*
X144016703Y-29217146D01*
X143988820Y-29162425D01*
X143939850Y-29066315D01*
X143895504Y-29005278D01*
X143840351Y-28929365D01*
X143840347Y-28929360D01*
X143720639Y-28809652D01*
X143720634Y-28809648D01*
X143583688Y-28710152D01*
X143583687Y-28710151D01*
X143583685Y-28710150D01*
X143536582Y-28686150D01*
X143432853Y-28633296D01*
X143271847Y-28580981D01*
X143104649Y-28554500D01*
X143104644Y-28554500D01*
X142285356Y-28554500D01*
X142285351Y-28554500D01*
X142118152Y-28580981D01*
X141957146Y-28633296D01*
X141806311Y-28710152D01*
X141669365Y-28809648D01*
X141669360Y-28809652D01*
X141549652Y-28929360D01*
X141549648Y-28929365D01*
X141450152Y-29066311D01*
X141373296Y-29217146D01*
X141320981Y-29378152D01*
X141294500Y-29545350D01*
X140373611Y-29545350D01*
X140365324Y-29493028D01*
X140305715Y-29309571D01*
X140218141Y-29137698D01*
X140104759Y-28981641D01*
X139968359Y-28845241D01*
X139812302Y-28731859D01*
X139640429Y-28644285D01*
X139456972Y-28584676D01*
X139456970Y-28584675D01*
X139456969Y-28584675D01*
X139310614Y-28561495D01*
X139266449Y-28554500D01*
X138523551Y-28554500D01*
X138487697Y-28560178D01*
X138333030Y-28584675D01*
X138149568Y-28644286D01*
X137977697Y-28731859D01*
X137888661Y-28796547D01*
X137821641Y-28845241D01*
X137821639Y-28845243D01*
X137821638Y-28845243D01*
X137685243Y-28981638D01*
X137685243Y-28981639D01*
X137685241Y-28981641D01*
X137668068Y-29005278D01*
X137571859Y-29137697D01*
X137484286Y-29309568D01*
X137424675Y-29493030D01*
X137394500Y-29683551D01*
X132251382Y-29683551D01*
X132248082Y-29682184D01*
X132248074Y-29682182D01*
X132083771Y-29649500D01*
X132083767Y-29649500D01*
X131916233Y-29649500D01*
X131916228Y-29649500D01*
X131751925Y-29682182D01*
X131751917Y-29682184D01*
X131597139Y-29746295D01*
X131457837Y-29839373D01*
X131339373Y-29957837D01*
X131246295Y-30097139D01*
X131182184Y-30251917D01*
X131182182Y-30251925D01*
X131149500Y-30416228D01*
X108000500Y-30416228D01*
X108000500Y-29568995D01*
X108969499Y-29568995D01*
X108996418Y-29704322D01*
X108996421Y-29704332D01*
X109049221Y-29831804D01*
X109049228Y-29831817D01*
X109125885Y-29946541D01*
X109125888Y-29946545D01*
X109223454Y-30044111D01*
X109223458Y-30044114D01*
X109338182Y-30120771D01*
X109338195Y-30120778D01*
X109465667Y-30173578D01*
X109465672Y-30173580D01*
X109465676Y-30173580D01*
X109465677Y-30173581D01*
X109601004Y-30200500D01*
X109601007Y-30200500D01*
X109738995Y-30200500D01*
X109831083Y-30182182D01*
X109874328Y-30173580D01*
X110001811Y-30120775D01*
X110116542Y-30044114D01*
X110214114Y-29946542D01*
X110290775Y-29831811D01*
X110343580Y-29704328D01*
X110370500Y-29568993D01*
X110370500Y-29431007D01*
X110370500Y-29431004D01*
X110343581Y-29295677D01*
X110343580Y-29295676D01*
X110343580Y-29295672D01*
X110311054Y-29217146D01*
X110290778Y-29168195D01*
X110290771Y-29168182D01*
X110214114Y-29053458D01*
X110214111Y-29053454D01*
X110116545Y-28955888D01*
X110116541Y-28955885D01*
X110001817Y-28879228D01*
X110001804Y-28879221D01*
X109874332Y-28826421D01*
X109874322Y-28826418D01*
X109738995Y-28799500D01*
X109738993Y-28799500D01*
X109601007Y-28799500D01*
X109601005Y-28799500D01*
X109465677Y-28826418D01*
X109465667Y-28826421D01*
X109338195Y-28879221D01*
X109338182Y-28879228D01*
X109223458Y-28955885D01*
X109223454Y-28955888D01*
X109125888Y-29053454D01*
X109125885Y-29053458D01*
X109049228Y-29168182D01*
X109049221Y-29168195D01*
X108996421Y-29295667D01*
X108996418Y-29295677D01*
X108969500Y-29431004D01*
X108969500Y-29431007D01*
X108969500Y-29568993D01*
X108969500Y-29568995D01*
X108969499Y-29568995D01*
X108000500Y-29568995D01*
X108000500Y-27564071D01*
X119849499Y-27564071D01*
X119874497Y-27689738D01*
X119874499Y-27689744D01*
X119923534Y-27808125D01*
X119994726Y-27914673D01*
X121085325Y-29005272D01*
X121085331Y-29005277D01*
X121191874Y-29076466D01*
X121261221Y-29105189D01*
X121310256Y-29125501D01*
X121310259Y-29125501D01*
X121310260Y-29125502D01*
X121435928Y-29150500D01*
X121435931Y-29150500D01*
X121564071Y-29150500D01*
X121628432Y-29137697D01*
X121689744Y-29125501D01*
X121808127Y-29076466D01*
X121914670Y-29005277D01*
X122005277Y-28914670D01*
X122033046Y-28873108D01*
X122048459Y-28854328D01*
X122160626Y-28742162D01*
X122253703Y-28602863D01*
X122317816Y-28448082D01*
X122350500Y-28283767D01*
X122350500Y-28116233D01*
X122317816Y-27951918D01*
X122258255Y-27808127D01*
X122253704Y-27797139D01*
X122160626Y-27657837D01*
X122042162Y-27539373D01*
X121902860Y-27446295D01*
X121748082Y-27382184D01*
X121748074Y-27382182D01*
X121583771Y-27349500D01*
X121583767Y-27349500D01*
X121416233Y-27349500D01*
X121416232Y-27349500D01*
X121385501Y-27355612D01*
X121315910Y-27349383D01*
X121260734Y-27306518D01*
X121237491Y-27240628D01*
X121253560Y-27172632D01*
X121273628Y-27146317D01*
X124505276Y-23914670D01*
X124555587Y-23839373D01*
X124576464Y-23808129D01*
X124576465Y-23808127D01*
X124625501Y-23689744D01*
X124638280Y-23625501D01*
X124647600Y-23578644D01*
X124666113Y-23533949D01*
X124753703Y-23402863D01*
X124817816Y-23248082D01*
X124850500Y-23083767D01*
X124850500Y-22916233D01*
X124850499Y-22916228D01*
X126649500Y-22916228D01*
X126649500Y-23083771D01*
X126682182Y-23248074D01*
X126682184Y-23248082D01*
X126746295Y-23402860D01*
X126839373Y-23542162D01*
X126957837Y-23660626D01*
X127050494Y-23722537D01*
X127097137Y-23753703D01*
X127251918Y-23817816D01*
X127416228Y-23850499D01*
X127416232Y-23850500D01*
X127416233Y-23850500D01*
X127583768Y-23850500D01*
X127583769Y-23850499D01*
X127748082Y-23817816D01*
X127902863Y-23753703D01*
X128026041Y-23671398D01*
X128092719Y-23650520D01*
X128094932Y-23650500D01*
X132679192Y-23650500D01*
X132746231Y-23670185D01*
X132766873Y-23686819D01*
X133619345Y-24539291D01*
X133652830Y-24600614D01*
X133653281Y-24602781D01*
X133682182Y-24748074D01*
X133682184Y-24748082D01*
X133746295Y-24902860D01*
X133839373Y-25042162D01*
X133957837Y-25160626D01*
X134050494Y-25222537D01*
X134097137Y-25253703D01*
X134251918Y-25317816D01*
X134416228Y-25350499D01*
X134416232Y-25350500D01*
X134416233Y-25350500D01*
X134583768Y-25350500D01*
X134583769Y-25350499D01*
X134748082Y-25317816D01*
X134902863Y-25253703D01*
X135042162Y-25160626D01*
X135160626Y-25042162D01*
X135253703Y-24902863D01*
X135317816Y-24748082D01*
X135350500Y-24583767D01*
X135350500Y-24416233D01*
X135317816Y-24251918D01*
X135253703Y-24097137D01*
X135222537Y-24050494D01*
X135160626Y-23957837D01*
X135042162Y-23839373D01*
X134902860Y-23746295D01*
X134748082Y-23682184D01*
X134748074Y-23682182D01*
X134602781Y-23653281D01*
X134540870Y-23620896D01*
X134539291Y-23619345D01*
X133414674Y-22494727D01*
X133414673Y-22494726D01*
X133414669Y-22494723D01*
X133308127Y-22423535D01*
X133189744Y-22374499D01*
X133189738Y-22374497D01*
X133064071Y-22349500D01*
X133064069Y-22349500D01*
X128094932Y-22349500D01*
X128027893Y-22329815D01*
X128026041Y-22328602D01*
X127902860Y-22246295D01*
X127748082Y-22182184D01*
X127748074Y-22182182D01*
X127583771Y-22149500D01*
X127583767Y-22149500D01*
X127416233Y-22149500D01*
X127416228Y-22149500D01*
X127251925Y-22182182D01*
X127251917Y-22182184D01*
X127097139Y-22246295D01*
X126957837Y-22339373D01*
X126839373Y-22457837D01*
X126746295Y-22597139D01*
X126682184Y-22751917D01*
X126682182Y-22751925D01*
X126649500Y-22916228D01*
X124850499Y-22916228D01*
X124817816Y-22751918D01*
X124753703Y-22597137D01*
X124685272Y-22494723D01*
X124660626Y-22457837D01*
X124542162Y-22339373D01*
X124402860Y-22246295D01*
X124248082Y-22182184D01*
X124248074Y-22182182D01*
X124083771Y-22149500D01*
X124083767Y-22149500D01*
X123916233Y-22149500D01*
X123916228Y-22149500D01*
X123751925Y-22182182D01*
X123751917Y-22182184D01*
X123597139Y-22246295D01*
X123457837Y-22339373D01*
X123339373Y-22457837D01*
X123246295Y-22597139D01*
X123182184Y-22751917D01*
X123182182Y-22751925D01*
X123149500Y-22916228D01*
X123149500Y-23083771D01*
X123182182Y-23248074D01*
X123182185Y-23248085D01*
X123194349Y-23277453D01*
X123201816Y-23346922D01*
X123170540Y-23409401D01*
X123167468Y-23412584D01*
X119994726Y-26585326D01*
X119923534Y-26691874D01*
X119874499Y-26810255D01*
X119874497Y-26810261D01*
X119849500Y-26935928D01*
X119849500Y-26935931D01*
X119849500Y-27564069D01*
X119849500Y-27564071D01*
X119849499Y-27564071D01*
X108000500Y-27564071D01*
X108000500Y-26568995D01*
X108969499Y-26568995D01*
X108996418Y-26704322D01*
X108996421Y-26704332D01*
X109049221Y-26831804D01*
X109049228Y-26831817D01*
X109125885Y-26946541D01*
X109125888Y-26946545D01*
X109223454Y-27044111D01*
X109223458Y-27044114D01*
X109338182Y-27120771D01*
X109338195Y-27120778D01*
X109399843Y-27146313D01*
X109465672Y-27173580D01*
X109465676Y-27173580D01*
X109465677Y-27173581D01*
X109601004Y-27200500D01*
X109601007Y-27200500D01*
X109738995Y-27200500D01*
X109830041Y-27182389D01*
X109874328Y-27173580D01*
X110001811Y-27120775D01*
X110116542Y-27044114D01*
X110214114Y-26946542D01*
X110240668Y-26906799D01*
X110271307Y-26860948D01*
X110290771Y-26831817D01*
X110290771Y-26831816D01*
X110290775Y-26831811D01*
X110343580Y-26704328D01*
X110370500Y-26568993D01*
X110370500Y-26431007D01*
X110370500Y-26431004D01*
X110343581Y-26295677D01*
X110343580Y-26295676D01*
X110343580Y-26295672D01*
X110343578Y-26295667D01*
X110290778Y-26168195D01*
X110290771Y-26168182D01*
X110214114Y-26053458D01*
X110214111Y-26053454D01*
X110116545Y-25955888D01*
X110116541Y-25955885D01*
X110001817Y-25879228D01*
X110001804Y-25879221D01*
X109874332Y-25826421D01*
X109874322Y-25826418D01*
X109738995Y-25799500D01*
X109738993Y-25799500D01*
X109601007Y-25799500D01*
X109601005Y-25799500D01*
X109465677Y-25826418D01*
X109465667Y-25826421D01*
X109338195Y-25879221D01*
X109338182Y-25879228D01*
X109223458Y-25955885D01*
X109223454Y-25955888D01*
X109125888Y-26053454D01*
X109125885Y-26053458D01*
X109049228Y-26168182D01*
X109049221Y-26168195D01*
X108996421Y-26295667D01*
X108996418Y-26295677D01*
X108969500Y-26431004D01*
X108969500Y-26431007D01*
X108969500Y-26568993D01*
X108969500Y-26568995D01*
X108969499Y-26568995D01*
X108000500Y-26568995D01*
X108000500Y-20503245D01*
X108000670Y-20496756D01*
X108003953Y-20434108D01*
X108006070Y-20393713D01*
X109649500Y-20393713D01*
X109649500Y-20606286D01*
X109679198Y-20793796D01*
X109682754Y-20816243D01*
X109693722Y-20850000D01*
X109748444Y-21018414D01*
X109844951Y-21207820D01*
X109969890Y-21379786D01*
X110120213Y-21530109D01*
X110292179Y-21655048D01*
X110292181Y-21655049D01*
X110292184Y-21655051D01*
X110481588Y-21751557D01*
X110683757Y-21817246D01*
X110893713Y-21850500D01*
X110893714Y-21850500D01*
X111106286Y-21850500D01*
X111106287Y-21850500D01*
X111316243Y-21817246D01*
X111518412Y-21751557D01*
X111707816Y-21655051D01*
X111729789Y-21639086D01*
X111879786Y-21530109D01*
X111879788Y-21530106D01*
X111879792Y-21530104D01*
X112030104Y-21379792D01*
X112030106Y-21379788D01*
X112030109Y-21379786D01*
X112155048Y-21207820D01*
X112155047Y-21207820D01*
X112155051Y-21207816D01*
X112251557Y-21018412D01*
X112317246Y-20816243D01*
X112350500Y-20606287D01*
X112350500Y-20393713D01*
X112317246Y-20183757D01*
X112251557Y-19981588D01*
X112155051Y-19792184D01*
X112155049Y-19792181D01*
X112155048Y-19792179D01*
X112030109Y-19620213D01*
X111879786Y-19469890D01*
X111774991Y-19393753D01*
X114840000Y-19393753D01*
X114840000Y-19606246D01*
X114873242Y-19816127D01*
X114873242Y-19816130D01*
X114938904Y-20018217D01*
X115035375Y-20207550D01*
X115074728Y-20261716D01*
X115707037Y-19629408D01*
X115724075Y-19692993D01*
X115789901Y-19807007D01*
X115882993Y-19900099D01*
X115997007Y-19965925D01*
X116060590Y-19982962D01*
X115428282Y-20615269D01*
X115428282Y-20615270D01*
X115482449Y-20654624D01*
X115671782Y-20751095D01*
X115873870Y-20816757D01*
X116083754Y-20850000D01*
X116296246Y-20850000D01*
X116506127Y-20816757D01*
X116506130Y-20816757D01*
X116708217Y-20751095D01*
X116897554Y-20654622D01*
X116951716Y-20615270D01*
X116951717Y-20615270D01*
X116319408Y-19982962D01*
X116382993Y-19965925D01*
X116497007Y-19900099D01*
X116590099Y-19807007D01*
X116655925Y-19692993D01*
X116672962Y-19629409D01*
X117305270Y-20261717D01*
X117305270Y-20261716D01*
X117344622Y-20207555D01*
X117349232Y-20198507D01*
X117397205Y-20147709D01*
X117465025Y-20130912D01*
X117531161Y-20153447D01*
X117570204Y-20198504D01*
X117574949Y-20207817D01*
X117699890Y-20379786D01*
X117850213Y-20530109D01*
X118022179Y-20655048D01*
X118022181Y-20655049D01*
X118022184Y-20655051D01*
X118211588Y-20751557D01*
X118413757Y-20817246D01*
X118623713Y-20850500D01*
X118623714Y-20850500D01*
X118836286Y-20850500D01*
X118836287Y-20850500D01*
X119046243Y-20817246D01*
X119248412Y-20751557D01*
X119437816Y-20655051D01*
X119492572Y-20615269D01*
X119609786Y-20530109D01*
X119609788Y-20530106D01*
X119609792Y-20530104D01*
X119760104Y-20379792D01*
X119760106Y-20379788D01*
X119760109Y-20379786D01*
X119885048Y-20207820D01*
X119885050Y-20207817D01*
X119885051Y-20207816D01*
X119889514Y-20199054D01*
X119937488Y-20148259D01*
X120005308Y-20131463D01*
X120071444Y-20153999D01*
X120110486Y-20199056D01*
X120114951Y-20207820D01*
X120239890Y-20379786D01*
X120390213Y-20530109D01*
X120562179Y-20655048D01*
X120562181Y-20655049D01*
X120562184Y-20655051D01*
X120751588Y-20751557D01*
X120953757Y-20817246D01*
X121163713Y-20850500D01*
X121163714Y-20850500D01*
X121376286Y-20850500D01*
X121376287Y-20850500D01*
X121586243Y-20817246D01*
X121788412Y-20751557D01*
X121977816Y-20655051D01*
X122149792Y-20530104D01*
X122263329Y-20416566D01*
X122324648Y-20383084D01*
X122394340Y-20388068D01*
X122450274Y-20429939D01*
X122467189Y-20460917D01*
X122516202Y-20592328D01*
X122516206Y-20592335D01*
X122602452Y-20707544D01*
X122602455Y-20707547D01*
X122717664Y-20793793D01*
X122717671Y-20793797D01*
X122852517Y-20844091D01*
X122852516Y-20844091D01*
X122859444Y-20844835D01*
X122912127Y-20850500D01*
X124707872Y-20850499D01*
X124767483Y-20844091D01*
X124902331Y-20793796D01*
X125017546Y-20707546D01*
X125103796Y-20592331D01*
X125154091Y-20457483D01*
X125160500Y-20397873D01*
X125160499Y-19393753D01*
X126840000Y-19393753D01*
X126840000Y-19606246D01*
X126873242Y-19816127D01*
X126873242Y-19816130D01*
X126938904Y-20018217D01*
X127035375Y-20207550D01*
X127074728Y-20261716D01*
X127707037Y-19629408D01*
X127724075Y-19692993D01*
X127789901Y-19807007D01*
X127882993Y-19900099D01*
X127997007Y-19965925D01*
X128060590Y-19982962D01*
X127428282Y-20615269D01*
X127428282Y-20615270D01*
X127482449Y-20654624D01*
X127671782Y-20751095D01*
X127873870Y-20816757D01*
X128083754Y-20850000D01*
X128296246Y-20850000D01*
X128506127Y-20816757D01*
X128506130Y-20816757D01*
X128708217Y-20751095D01*
X128897554Y-20654622D01*
X128951716Y-20615270D01*
X128951717Y-20615270D01*
X128319408Y-19982962D01*
X128382993Y-19965925D01*
X128497007Y-19900099D01*
X128590099Y-19807007D01*
X128655925Y-19692993D01*
X128672962Y-19629408D01*
X129305270Y-20261717D01*
X129305270Y-20261716D01*
X129344622Y-20207555D01*
X129349232Y-20198507D01*
X129397205Y-20147709D01*
X129465025Y-20130912D01*
X129531161Y-20153447D01*
X129570204Y-20198504D01*
X129574949Y-20207817D01*
X129699890Y-20379786D01*
X129850213Y-20530109D01*
X130022179Y-20655048D01*
X130022181Y-20655049D01*
X130022184Y-20655051D01*
X130211588Y-20751557D01*
X130413757Y-20817246D01*
X130623713Y-20850500D01*
X130623714Y-20850500D01*
X130836286Y-20850500D01*
X130836287Y-20850500D01*
X131046243Y-20817246D01*
X131248412Y-20751557D01*
X131437816Y-20655051D01*
X131492572Y-20615269D01*
X131609786Y-20530109D01*
X131609788Y-20530106D01*
X131609792Y-20530104D01*
X131760104Y-20379792D01*
X131760106Y-20379788D01*
X131760109Y-20379786D01*
X131885048Y-20207820D01*
X131885050Y-20207817D01*
X131885051Y-20207816D01*
X131889514Y-20199054D01*
X131937488Y-20148259D01*
X132005308Y-20131463D01*
X132071444Y-20153999D01*
X132110486Y-20199056D01*
X132114951Y-20207820D01*
X132239890Y-20379786D01*
X132390213Y-20530109D01*
X132562179Y-20655048D01*
X132562181Y-20655049D01*
X132562184Y-20655051D01*
X132751588Y-20751557D01*
X132953757Y-20817246D01*
X133163713Y-20850500D01*
X133163714Y-20850500D01*
X133376286Y-20850500D01*
X133376287Y-20850500D01*
X133586243Y-20817246D01*
X133788412Y-20751557D01*
X133977816Y-20655051D01*
X134149792Y-20530104D01*
X134263329Y-20416566D01*
X134324648Y-20383084D01*
X134394340Y-20388068D01*
X134450274Y-20429939D01*
X134467189Y-20460917D01*
X134516202Y-20592328D01*
X134516206Y-20592335D01*
X134602452Y-20707544D01*
X134602455Y-20707547D01*
X134717664Y-20793793D01*
X134717671Y-20793797D01*
X134852517Y-20844091D01*
X134852516Y-20844091D01*
X134859444Y-20844835D01*
X134912127Y-20850500D01*
X136707872Y-20850499D01*
X136767483Y-20844091D01*
X136902331Y-20793796D01*
X137017546Y-20707546D01*
X137103796Y-20592331D01*
X137154091Y-20457483D01*
X137160500Y-20397873D01*
X137160500Y-20393713D01*
X140149500Y-20393713D01*
X140149500Y-20606286D01*
X140179198Y-20793796D01*
X140182754Y-20816243D01*
X140193722Y-20850000D01*
X140248444Y-21018414D01*
X140344951Y-21207820D01*
X140469890Y-21379786D01*
X140620213Y-21530109D01*
X140792179Y-21655048D01*
X140792181Y-21655049D01*
X140792184Y-21655051D01*
X140981588Y-21751557D01*
X141183757Y-21817246D01*
X141393713Y-21850500D01*
X141393714Y-21850500D01*
X141606286Y-21850500D01*
X141606287Y-21850500D01*
X141816243Y-21817246D01*
X142018412Y-21751557D01*
X142207816Y-21655051D01*
X142229789Y-21639086D01*
X142379786Y-21530109D01*
X142379788Y-21530106D01*
X142379792Y-21530104D01*
X142530104Y-21379792D01*
X142530106Y-21379788D01*
X142530109Y-21379786D01*
X142655048Y-21207820D01*
X142655047Y-21207820D01*
X142655051Y-21207816D01*
X142751557Y-21018412D01*
X142817246Y-20816243D01*
X142850500Y-20606287D01*
X142850500Y-20393713D01*
X142817246Y-20183757D01*
X142751557Y-19981588D01*
X142655051Y-19792184D01*
X142655049Y-19792181D01*
X142655048Y-19792179D01*
X142530109Y-19620213D01*
X142379786Y-19469890D01*
X142207820Y-19344951D01*
X142018414Y-19248444D01*
X142018413Y-19248443D01*
X142018412Y-19248443D01*
X141816243Y-19182754D01*
X141816241Y-19182753D01*
X141816240Y-19182753D01*
X141654957Y-19157208D01*
X141606287Y-19149500D01*
X141393713Y-19149500D01*
X141345042Y-19157208D01*
X141183760Y-19182753D01*
X140981585Y-19248444D01*
X140792179Y-19344951D01*
X140620213Y-19469890D01*
X140469890Y-19620213D01*
X140344951Y-19792179D01*
X140248444Y-19981585D01*
X140182753Y-20183760D01*
X140149500Y-20393713D01*
X137160500Y-20393713D01*
X137160499Y-19500000D01*
X137160499Y-18602129D01*
X137160498Y-18602123D01*
X137154091Y-18542516D01*
X137103797Y-18407671D01*
X137103793Y-18407664D01*
X137017547Y-18292455D01*
X137017544Y-18292452D01*
X136902335Y-18206206D01*
X136902328Y-18206202D01*
X136767482Y-18155908D01*
X136767483Y-18155908D01*
X136707883Y-18149501D01*
X136707881Y-18149500D01*
X136707873Y-18149500D01*
X136707864Y-18149500D01*
X134912129Y-18149500D01*
X134912123Y-18149501D01*
X134852516Y-18155908D01*
X134717671Y-18206202D01*
X134717664Y-18206206D01*
X134602455Y-18292452D01*
X134602452Y-18292455D01*
X134516206Y-18407664D01*
X134516203Y-18407669D01*
X134467189Y-18539083D01*
X134425317Y-18595016D01*
X134359853Y-18619433D01*
X134291580Y-18604581D01*
X134263326Y-18583430D01*
X134149786Y-18469890D01*
X133977820Y-18344951D01*
X133788414Y-18248444D01*
X133788413Y-18248443D01*
X133788412Y-18248443D01*
X133586243Y-18182754D01*
X133586241Y-18182753D01*
X133586240Y-18182753D01*
X133424957Y-18157208D01*
X133376287Y-18149500D01*
X133163713Y-18149500D01*
X133115042Y-18157208D01*
X132953760Y-18182753D01*
X132751585Y-18248444D01*
X132562179Y-18344951D01*
X132390213Y-18469890D01*
X132239890Y-18620213D01*
X132114949Y-18792182D01*
X132110484Y-18800946D01*
X132062509Y-18851742D01*
X131994688Y-18868536D01*
X131928553Y-18845998D01*
X131889516Y-18800946D01*
X131885050Y-18792182D01*
X131760109Y-18620213D01*
X131609786Y-18469890D01*
X131437820Y-18344951D01*
X131248414Y-18248444D01*
X131248413Y-18248443D01*
X131248412Y-18248443D01*
X131046243Y-18182754D01*
X131046241Y-18182753D01*
X131046240Y-18182753D01*
X130884957Y-18157208D01*
X130836287Y-18149500D01*
X130623713Y-18149500D01*
X130575042Y-18157208D01*
X130413760Y-18182753D01*
X130211585Y-18248444D01*
X130022179Y-18344951D01*
X129850213Y-18469890D01*
X129699890Y-18620213D01*
X129574949Y-18792182D01*
X129570202Y-18801499D01*
X129522227Y-18852293D01*
X129454405Y-18869087D01*
X129388271Y-18846548D01*
X129349234Y-18801495D01*
X129344626Y-18792452D01*
X129305270Y-18738282D01*
X129305269Y-18738282D01*
X128672962Y-19370590D01*
X128655925Y-19307007D01*
X128590099Y-19192993D01*
X128497007Y-19099901D01*
X128382993Y-19034075D01*
X128319409Y-19017037D01*
X128951716Y-18384728D01*
X128897550Y-18345375D01*
X128708217Y-18248904D01*
X128506129Y-18183242D01*
X128296246Y-18150000D01*
X128083754Y-18150000D01*
X127873872Y-18183242D01*
X127873869Y-18183242D01*
X127671782Y-18248904D01*
X127482439Y-18345380D01*
X127428282Y-18384727D01*
X127428282Y-18384728D01*
X128060591Y-19017037D01*
X127997007Y-19034075D01*
X127882993Y-19099901D01*
X127789901Y-19192993D01*
X127724075Y-19307007D01*
X127707037Y-19370591D01*
X127074728Y-18738282D01*
X127074727Y-18738282D01*
X127035380Y-18792439D01*
X126938904Y-18981782D01*
X126873242Y-19183869D01*
X126873242Y-19183872D01*
X126840000Y-19393753D01*
X125160499Y-19393753D01*
X125160499Y-18602128D01*
X125154091Y-18542517D01*
X125117617Y-18444726D01*
X125103798Y-18407673D01*
X125103793Y-18407664D01*
X125017547Y-18292455D01*
X125017544Y-18292452D01*
X124902335Y-18206206D01*
X124902328Y-18206202D01*
X124767482Y-18155908D01*
X124767483Y-18155908D01*
X124707883Y-18149501D01*
X124707881Y-18149500D01*
X124707873Y-18149500D01*
X124707864Y-18149500D01*
X122912129Y-18149500D01*
X122912123Y-18149501D01*
X122852516Y-18155908D01*
X122717671Y-18206202D01*
X122717664Y-18206206D01*
X122602455Y-18292452D01*
X122602452Y-18292455D01*
X122516206Y-18407664D01*
X122516203Y-18407669D01*
X122467189Y-18539083D01*
X122425317Y-18595016D01*
X122359853Y-18619433D01*
X122291580Y-18604581D01*
X122263326Y-18583430D01*
X122149786Y-18469890D01*
X121977820Y-18344951D01*
X121788414Y-18248444D01*
X121788413Y-18248443D01*
X121788412Y-18248443D01*
X121586243Y-18182754D01*
X121586241Y-18182753D01*
X121586240Y-18182753D01*
X121424957Y-18157208D01*
X121376287Y-18149500D01*
X121163713Y-18149500D01*
X121115042Y-18157208D01*
X120953760Y-18182753D01*
X120751585Y-18248444D01*
X120562179Y-18344951D01*
X120390213Y-18469890D01*
X120239890Y-18620213D01*
X120114949Y-18792182D01*
X120110484Y-18800946D01*
X120062509Y-18851742D01*
X119994688Y-18868536D01*
X119928553Y-18845998D01*
X119889516Y-18800946D01*
X119885050Y-18792182D01*
X119760109Y-18620213D01*
X119609786Y-18469890D01*
X119437820Y-18344951D01*
X119248414Y-18248444D01*
X119248413Y-18248443D01*
X119248412Y-18248443D01*
X119046243Y-18182754D01*
X119046241Y-18182753D01*
X119046240Y-18182753D01*
X118884957Y-18157208D01*
X118836287Y-18149500D01*
X118623713Y-18149500D01*
X118575042Y-18157208D01*
X118413760Y-18182753D01*
X118211585Y-18248444D01*
X118022179Y-18344951D01*
X117850213Y-18469890D01*
X117699890Y-18620213D01*
X117574949Y-18792182D01*
X117570202Y-18801499D01*
X117522227Y-18852293D01*
X117454405Y-18869087D01*
X117388271Y-18846548D01*
X117349234Y-18801495D01*
X117344626Y-18792452D01*
X117305270Y-18738282D01*
X117305269Y-18738282D01*
X116672962Y-19370590D01*
X116655925Y-19307007D01*
X116590099Y-19192993D01*
X116497007Y-19099901D01*
X116382993Y-19034075D01*
X116319409Y-19017037D01*
X116951716Y-18384728D01*
X116897550Y-18345375D01*
X116708217Y-18248904D01*
X116506129Y-18183242D01*
X116296246Y-18150000D01*
X116083754Y-18150000D01*
X115873872Y-18183242D01*
X115873869Y-18183242D01*
X115671782Y-18248904D01*
X115482439Y-18345380D01*
X115428282Y-18384727D01*
X115428282Y-18384728D01*
X116060591Y-19017037D01*
X115997007Y-19034075D01*
X115882993Y-19099901D01*
X115789901Y-19192993D01*
X115724075Y-19307007D01*
X115707037Y-19370591D01*
X115074728Y-18738282D01*
X115074727Y-18738282D01*
X115035380Y-18792439D01*
X114938904Y-18981782D01*
X114873242Y-19183869D01*
X114873242Y-19183872D01*
X114840000Y-19393753D01*
X111774991Y-19393753D01*
X111707820Y-19344951D01*
X111518414Y-19248444D01*
X111518413Y-19248443D01*
X111518412Y-19248443D01*
X111316243Y-19182754D01*
X111316241Y-19182753D01*
X111316240Y-19182753D01*
X111154957Y-19157208D01*
X111106287Y-19149500D01*
X110893713Y-19149500D01*
X110845042Y-19157208D01*
X110683760Y-19182753D01*
X110481585Y-19248444D01*
X110292179Y-19344951D01*
X110120213Y-19469890D01*
X109969890Y-19620213D01*
X109844951Y-19792179D01*
X109748444Y-19981585D01*
X109682753Y-20183760D01*
X109649500Y-20393713D01*
X108006070Y-20393713D01*
X108016591Y-20192936D01*
X108017945Y-20180064D01*
X108065030Y-19882783D01*
X108067723Y-19870107D01*
X108145627Y-19579367D01*
X108149636Y-19567032D01*
X108175367Y-19500001D01*
X108257493Y-19286054D01*
X108262763Y-19274215D01*
X108399419Y-19006014D01*
X108405885Y-18994815D01*
X108569824Y-18742371D01*
X108577426Y-18731908D01*
X108766858Y-18497978D01*
X108775525Y-18488353D01*
X108988353Y-18275525D01*
X108997978Y-18266858D01*
X109231908Y-18077426D01*
X109242371Y-18069824D01*
X109494815Y-17905885D01*
X109506014Y-17899419D01*
X109774215Y-17762763D01*
X109786054Y-17757493D01*
X110067039Y-17649633D01*
X110079367Y-17645627D01*
X110370107Y-17567723D01*
X110382783Y-17565030D01*
X110680064Y-17517945D01*
X110692936Y-17516591D01*
X110996756Y-17500669D01*
X111003245Y-17500500D01*
X111065892Y-17500500D01*
X141434108Y-17500500D01*
X141496755Y-17500500D01*
X141503243Y-17500669D01*
G37*
%TD.AperFunction*%
%TD*%
M02*
