%TF.GenerationSoftware,KiCad,Pcbnew,10.0.6*%
%TF.CreationDate,2026-09-06T02:12:53+08:00*%
%TF.ProjectId,pcb_design,7063625f-6465-4736-9967-6e2e6b696361,rev?*%
%TF.SameCoordinates,Original*%
%TF.FileFunction,Soldermask,Top*%
%TF.FilePolarity,Negative*%
%FSLAX46Y46*%
G04 Gerber Fmt 4.6, Leading zero omitted, Abs format (unit mm)*
G04 Created by KiCad (PCBNEW 10.0.6) date 2026-09-06 02:12:53*
%MOMM*%
%LPD*%
G01*
G04 APERTURE LIST*
G04 Aperture macros list*
%AMRoundRect*
0 Rectangle with rounded corners*
0 $1 Rounding radius*
0 $2 $3 $4 $5 $6 $7 $8 $9 X,Y pos of 4 corners*
0 Add a 4 corners polygon primitive as box body*
4,1,4,$2,$3,$4,$5,$6,$7,$8,$9,$2,$3,0*
0 Add four circle primitives for the rounded corners*
1,1,$1+$1,$2,$3*
1,1,$1+$1,$4,$5*
1,1,$1+$1,$6,$7*
1,1,$1+$1,$8,$9*
0 Add four rect primitives between the rounded corners*
20,1,$1+$1,$2,$3,$4,$5,0*
20,1,$1+$1,$4,$5,$6,$7,0*
20,1,$1+$1,$6,$7,$8,$9,0*
20,1,$1+$1,$8,$9,$2,$3,0*%
G04 Aperture macros list end*
%ADD10RoundRect,0.140000X0.140000X0.170000X-0.140000X0.170000X-0.140000X-0.170000X0.140000X-0.170000X0*%
%ADD11RoundRect,0.140000X0.170000X-0.140000X0.170000X0.140000X-0.170000X0.140000X-0.170000X-0.140000X0*%
%ADD12RoundRect,0.250000X-0.350000X0.450000X-0.350000X-0.450000X0.350000X-0.450000X0.350000X0.450000X0*%
%ADD13R,0.800000X1.000000*%
%ADD14C,0.900000*%
%ADD15R,1.500000X0.700000*%
%ADD16C,2.200000*%
%ADD17C,1.700000*%
%ADD18R,1.700000X1.700000*%
%ADD19RoundRect,0.135000X-0.135000X-0.185000X0.135000X-0.185000X0.135000X0.185000X-0.135000X0.185000X0*%
%ADD20RoundRect,0.375000X-0.375000X0.625000X-0.375000X-0.625000X0.375000X-0.625000X0.375000X0.625000X0*%
%ADD21RoundRect,0.500000X-1.400000X0.500000X-1.400000X-0.500000X1.400000X-0.500000X1.400000X0.500000X0*%
%ADD22RoundRect,0.075000X-0.662500X-0.075000X0.662500X-0.075000X0.662500X0.075000X-0.662500X0.075000X0*%
%ADD23RoundRect,0.075000X-0.075000X-0.662500X0.075000X-0.662500X0.075000X0.662500X-0.075000X0.662500X0*%
%ADD24RoundRect,0.135000X0.135000X0.185000X-0.135000X0.185000X-0.135000X-0.185000X0.135000X-0.185000X0*%
%ADD25RoundRect,0.135000X-0.185000X0.135000X-0.185000X-0.135000X0.185000X-0.135000X0.185000X0.135000X0*%
%ADD26O,0.800000X0.800000*%
%ADD27RoundRect,0.112500X0.537500X-0.112500X0.537500X0.112500X-0.537500X0.112500X-0.537500X-0.112500X0*%
%ADD28O,1.800000X1.150000*%
%ADD29O,2.000000X1.450000*%
%ADD30RoundRect,0.218750X-0.256250X0.218750X-0.256250X-0.218750X0.256250X-0.218750X0.256250X0.218750X0*%
%ADD31RoundRect,0.218750X0.218750X0.256250X-0.218750X0.256250X-0.218750X-0.256250X0.218750X-0.256250X0*%
%ADD32RoundRect,0.250000X-0.250000X-0.475000X0.250000X-0.475000X0.250000X0.475000X-0.250000X0.475000X0*%
%ADD33RoundRect,0.140000X-0.140000X-0.170000X0.140000X-0.170000X0.140000X0.170000X-0.140000X0.170000X0*%
%ADD34RoundRect,0.225000X0.225000X0.250000X-0.225000X0.250000X-0.225000X-0.250000X0.225000X-0.250000X0*%
%ADD35RoundRect,0.140000X-0.170000X0.140000X-0.170000X-0.140000X0.170000X-0.140000X0.170000X0.140000X0*%
G04 APERTURE END LIST*
D10*
%TO.C,C1*%
X128980000Y-40500000D03*
X128020000Y-40500000D03*
%TD*%
D11*
%TO.C,C11*%
X118000000Y-37980000D03*
X118000000Y-37020000D03*
%TD*%
%TO.C,C10*%
X118000000Y-33020000D03*
X118000000Y-33980000D03*
%TD*%
D12*
%TO.C,Y1*%
X114650000Y-33400000D03*
X114650000Y-35600000D03*
X116350000Y-35600000D03*
X116350000Y-33400000D03*
%TD*%
D13*
%TO.C,SW1*%
X110780000Y-24350000D03*
X108570000Y-24350000D03*
D14*
X109670000Y-26500000D03*
X109670000Y-29500000D03*
D13*
X110780000Y-31650000D03*
X108570000Y-31650000D03*
D15*
X111430000Y-25750000D03*
X111430000Y-28750000D03*
X111430000Y-30250000D03*
%TD*%
D16*
%TO.C,H4*%
X111000000Y-20500000D03*
%TD*%
%TO.C,H1*%
X111000000Y-48000000D03*
%TD*%
%TO.C,H2*%
X141500000Y-48000000D03*
%TD*%
D17*
%TO.C,J4*%
X124500000Y-49000000D03*
X121960000Y-49000000D03*
X119420000Y-49000000D03*
D18*
X116880000Y-49000000D03*
%TD*%
D17*
%TO.C,J2*%
X128190000Y-19500000D03*
X130730000Y-19500000D03*
X133270000Y-19500000D03*
D18*
X135810000Y-19500000D03*
%TD*%
D16*
%TO.C,H3*%
X141500000Y-20500000D03*
%TD*%
D19*
%TO.C,R5*%
X117490000Y-30000000D03*
X118510000Y-30000000D03*
%TD*%
D20*
%TO.C,U2*%
X134300000Y-42350000D03*
X132000000Y-42350000D03*
D21*
X132000000Y-48650000D03*
D20*
X129700000Y-42350000D03*
%TD*%
D22*
%TO.C,U1*%
X121337500Y-31750000D03*
X121337500Y-32250000D03*
X121337500Y-32750000D03*
X121337500Y-33250000D03*
X121337500Y-33750000D03*
X121337500Y-34250000D03*
X121337500Y-34750000D03*
X121337500Y-35250000D03*
X121337500Y-35750000D03*
X121337500Y-36250000D03*
X121337500Y-36750000D03*
X121337500Y-37250000D03*
D23*
X122750000Y-38662500D03*
X123250000Y-38662500D03*
X123750000Y-38662500D03*
X124250000Y-38662500D03*
X124750000Y-38662500D03*
X125250000Y-38662500D03*
X125750000Y-38662500D03*
X126250000Y-38662500D03*
X126750000Y-38662500D03*
X127250000Y-38662500D03*
X127750000Y-38662500D03*
X128250000Y-38662500D03*
D22*
X129662500Y-37250000D03*
X129662500Y-36750000D03*
X129662500Y-36250000D03*
X129662500Y-35750000D03*
X129662500Y-35250000D03*
X129662500Y-34750000D03*
X129662500Y-34250000D03*
X129662500Y-33750000D03*
X129662500Y-33250000D03*
X129662500Y-32750000D03*
X129662500Y-32250000D03*
X129662500Y-31750000D03*
D23*
X128250000Y-30337500D03*
X127750000Y-30337500D03*
X127250000Y-30337500D03*
X126750000Y-30337500D03*
X126250000Y-30337500D03*
X125750000Y-30337500D03*
X125250000Y-30337500D03*
X124750000Y-30337500D03*
X124250000Y-30337500D03*
X123750000Y-30337500D03*
X123250000Y-30337500D03*
X122750000Y-30337500D03*
%TD*%
D19*
%TO.C,R4*%
X120990000Y-46000000D03*
X122010000Y-46000000D03*
%TD*%
%TO.C,R3*%
X116490000Y-46000000D03*
X117510000Y-46000000D03*
%TD*%
D24*
%TO.C,R2*%
X137510000Y-44000000D03*
X136490000Y-44000000D03*
%TD*%
D25*
%TO.C,R1*%
X134500000Y-31990000D03*
X134500000Y-33010000D03*
%TD*%
D18*
%TO.C,J3*%
X123810000Y-19500000D03*
D17*
X121270000Y-19500000D03*
X118730000Y-19500000D03*
X116190000Y-19500000D03*
%TD*%
D26*
%TO.C,J1*%
X139945000Y-36005000D03*
X139945000Y-31005000D03*
D27*
X138845000Y-34805000D03*
X138845000Y-34155000D03*
X138845000Y-33505000D03*
X138845000Y-32855000D03*
X138845000Y-32205000D03*
D28*
X142695000Y-37380000D03*
D29*
X138895000Y-37230000D03*
X138895000Y-29780000D03*
D28*
X142695000Y-29630000D03*
%TD*%
D30*
%TO.C,FB1*%
X119000000Y-39462500D03*
X119000000Y-41037500D03*
%TD*%
D31*
%TO.C,D1*%
X138287500Y-42500000D03*
X136712500Y-42500000D03*
%TD*%
D32*
%TO.C,C13*%
X134550000Y-39500000D03*
X136450000Y-39500000D03*
%TD*%
%TO.C,C12*%
X130550000Y-39500000D03*
X132450000Y-39500000D03*
%TD*%
D33*
%TO.C,C9*%
X120800000Y-40650000D03*
X121760000Y-40650000D03*
%TD*%
%TO.C,C8*%
X114520000Y-41500000D03*
X115480000Y-41500000D03*
%TD*%
%TO.C,C7*%
X116520000Y-39250000D03*
X117480000Y-39250000D03*
%TD*%
D11*
%TO.C,C6*%
X119500000Y-36230000D03*
X119500000Y-35270000D03*
%TD*%
D34*
%TO.C,C5*%
X132775000Y-28000000D03*
X131225000Y-28000000D03*
%TD*%
D11*
%TO.C,C4*%
X119500000Y-32230000D03*
X119500000Y-31270000D03*
%TD*%
D33*
%TO.C,C3*%
X122520000Y-28500000D03*
X123480000Y-28500000D03*
%TD*%
D35*
%TO.C,C2*%
X131500000Y-31270000D03*
X131500000Y-32230000D03*
%TD*%
M02*
